<svg xmlns="http://www.w3.org/2000/svg" width="150" height="150"><path d="M38.516 31.242C25.584 31.242 15 41.825 15 54.757v72.973c0 12.932 10.584 23.512 23.516 23.512h72.972c12.932 0 23.512-10.58 23.512-23.512V54.757c0-12.932-10.58-23.515-23.512-23.515H38.516zm5.914 19.802c6.2 0 10.02 4.07 10.138 9.421 0 5.233-3.938 9.417-10.258 9.417h-.116c-6.083 0-10.014-4.184-10.014-9.417 0-5.35 4.05-9.421 10.25-9.421zm53.433 25.008c11.925 0 20.864 7.794 20.864 24.543v31.268h-18.122v-29.171c0-7.33-2.623-12.332-9.182-12.332-5.006 0-7.99 3.37-9.3 6.627-.48 1.165-.597 2.792-.597 4.422v30.454H63.404s.238-49.415 0-54.532H81.53v7.722c2.408-3.715 6.716-9.001 16.333-9.001zm-62.614 1.283H53.37v54.528H35.25V77.335z" fill="#050505"/></svg>