<?xml version="1.0" encoding="UTF-8" standalone="no"?>
<!-- Created with Inkscape (http://www.inkscape.org/) -->

<svg
   xmlns:dc="http://purl.org/dc/elements/1.1/"
   xmlns:cc="http://creativecommons.org/ns#"
   xmlns:rdf="http://www.w3.org/1999/02/22-rdf-syntax-ns#"
   xmlns:svg="http://www.w3.org/2000/svg"
   xmlns="http://www.w3.org/2000/svg"
   xmlns:xlink="http://www.w3.org/1999/xlink"
   xmlns:sodipodi="http://sodipodi.sourceforge.net/DTD/sodipodi-0.dtd"
   xmlns:inkscape="http://www.inkscape.org/namespaces/inkscape"
   width="270"
   height="180.00075"
   id="svg2"
   version="1.1"
   inkscape:version="0.48.3.1 r9886"
   sodipodi:docname="en-US.svg">
  <title
     id="title3088">United State flag</title>
  <defs
     id="defs4">
    <inkscape:perspective
       sodipodi:type="inkscape:persp3d"
       inkscape:vp_x="0 : 526.18109 : 1"
       inkscape:vp_y="0 : 1000 : 0"
       inkscape:vp_z="744.09448 : 526.18109 : 1"
       inkscape:persp3d-origin="372.04724 : 350.78739 : 1"
       id="perspective10" />
    <inkscape:perspective
       id="perspective3564"
       inkscape:persp3d-origin="0.5 : 0.33333333 : 1"
       inkscape:vp_z="1 : 0.5 : 1"
       inkscape:vp_y="0 : 1000 : 0"
       inkscape:vp_x="0 : 0.5 : 1"
       sodipodi:type="inkscape:persp3d" />
  </defs>
  <sodipodi:namedview
     id="base"
     pagecolor="#ffffff"
     bordercolor="#666666"
     borderopacity="1.0"
     inkscape:pageopacity="0.0"
     inkscape:pageshadow="2"
     inkscape:zoom="0.7"
     inkscape:cx="-227.80785"
     inkscape:cy="177.32568"
     inkscape:document-units="px"
     inkscape:current-layer="layer1"
     showgrid="false"
     inkscape:window-width="1600"
     inkscape:window-height="813"
     inkscape:window-x="0"
     inkscape:window-y="27"
     inkscape:window-maximized="1"
     fit-margin-top="0"
     fit-margin-left="0"
     fit-margin-right="0"
     fit-margin-bottom="0" />
  <metadata
     id="metadata7">
    <rdf:RDF>
      <cc:Work
         rdf:about="">
        <dc:format>image/svg+xml</dc:format>
        <dc:type
           rdf:resource="http://purl.org/dc/dcmitype/StillImage" />
        <dc:title>United State flag</dc:title>
        <dc:creator>
          <cc:Agent>
            <dc:title>Nicolas Froidure</dc:title>
          </cc:Agent>
        </dc:creator>
        <dc:language>en</dc:language>
        <dc:subject>
          <rdf:Bag>
            <rdf:li>USA</rdf:li>
            <rdf:li>United States of America</rdf:li>
            <rdf:li>en-US</rdf:li>
          </rdf:Bag>
        </dc:subject>
        <cc:license
           rdf:resource="http://creativecommons.org/licenses/publicdomain/" />
      </cc:Work>
      <cc:License
         rdf:about="http://creativecommons.org/licenses/publicdomain/">
        <cc:permits
           rdf:resource="http://creativecommons.org/ns#Reproduction" />
        <cc:permits
           rdf:resource="http://creativecommons.org/ns#Distribution" />
        <cc:permits
           rdf:resource="http://creativecommons.org/ns#DerivativeWorks" />
      </cc:License>
    </rdf:RDF>
  </metadata>
  <g
     inkscape:label="Calque 1"
     inkscape:groupmode="layer"
     id="layer1"
     transform="translate(-270,-1.0735449)">
    <g
       style="display:inline"
       id="g4917"
       transform="matrix(9,0,0,9,-7380,13209.815)">
      <rect
         style="fill:#ffffff;fill-opacity:1;stroke:none;display:inline"
         id="rect4853-1"
         width="30"
         height="20"
         x="850"
         y="-1467.6379" />
      <rect
         y="-1458.418"
         x="850"
         height="1.54"
         width="30"
         id="rect4907"
         style="fill:#bf0a30;fill-opacity:1;stroke:none;display:inline" />
      <rect
         style="fill:#bf0a30;fill-opacity:1;stroke:none;display:inline"
         id="rect4901"
         width="30"
         height="1.54"
         x="850"
         y="-1452.2579" />
      <rect
         style="fill:#bf0a30;fill-opacity:1;stroke:none;display:inline"
         id="rect4909"
         width="30"
         height="1.54"
         x="850"
         y="-1461.4979" />
      <rect
         y="-1464.5779"
         x="850"
         height="1.54"
         width="30"
         id="rect4915"
         style="fill:#bf0a30;fill-opacity:1;stroke:none;display:inline" />
      <rect
         y="-1467.6379"
         x="850"
         height="1.54"
         width="30"
         id="rect4911"
         style="fill:#bf0a30;fill-opacity:1;stroke:none;display:inline" />
      <rect
         y="-1449.1779"
         x="850"
         height="1.54"
         width="30"
         id="rect4899"
         style="fill:#bf0a30;fill-opacity:1;stroke:none;display:inline" />
      <rect
         y="-1455.3379"
         x="850"
         height="1.54"
         width="30"
         id="rect4903"
         style="fill:#bf0a30;fill-opacity:1;stroke:none;display:inline" />
      <rect
         style="fill:#002868"
         y="-1467.6378"
         x="850"
         id="blue field-1"
         width="15.371428"
         height="10.76" />
      <g
         transform="matrix(0.02561905,0,0,0.02561905,850.00002,-1467.6378)"
         id="star_columns_1_and_2-4">
        <g
           id="column_1-9">
          <g
             id="four_of_five_stars_in_column_1-1">
            <g
               style="fill:#ffffff"
               id="first_star-0"
               transform="matrix(24,0,0,24,50,42)">
              <g
                 id="cone-7">
                <polygon
                   id="triangle-5"
                   points="0,1 0.5,1 0,0 "
                   transform="matrix(0.95105652,0.30901699,-0.30901699,0.95105652,0,-1)" />
                <use
                   height="1052.3622"
                   width="744.09448"
                   y="0"
                   x="0"
                   xlink:href="#triangle-5"
                   transform="scale(-1,1)"
                   id="use14-8" />
              </g>
              <use
                 height="1052.3622"
                 width="744.09448"
                 y="0"
                 x="0"
                 xlink:href="#cone-7"
                 transform="matrix(0.30901699,0.95105652,-0.95105652,0.30901699,0,0)"
                 id="use16-7" />
              <use
                 height="1052.3622"
                 width="744.09448"
                 y="0"
                 x="0"
                 xlink:href="#cone-7"
                 transform="matrix(0.30901699,-0.95105652,0.95105652,0.30901699,0,0)"
                 id="use18-0" />
              <use
                 height="1052.3622"
                 width="744.09448"
                 y="0"
                 x="0"
                 xlink:href="#cone-7"
                 transform="matrix(-0.80901699,0.58778525,-0.58778525,-0.80901699,0,0)"
                 id="use20-4" />
              <use
                 height="1052.3622"
                 width="744.09448"
                 y="0"
                 x="0"
                 xlink:href="#cone-7"
                 transform="matrix(-0.80901699,-0.58778525,0.58778525,-0.80901699,0,0)"
                 id="use22-8" />
              <path
                 style="stroke:#000000;stroke-width:0.07"
                 d="M -0.2,0 0.2,0 M 0,-0.2 0,0.2"
                 id="path24-0"
                 inkscape:connector-curvature="0" />
            </g>
            <use
               height="1052.3622"
               width="744.09448"
               x="0"
               xlink:href="#first_star-0"
               y="84"
               id="use26-4" />
            <use
               height="1052.3622"
               width="744.09448"
               x="0"
               xlink:href="#first_star-0"
               y="168"
               id="use28-2" />
            <use
               height="1052.3622"
               width="744.09448"
               x="0"
               xlink:href="#first_star-0"
               y="252"
               id="use30-9" />
          </g>
          <use
             height="1052.3622"
             width="744.09448"
             x="0"
             xlink:href="#first_star-0"
             y="336"
             id="use32-6" />
        </g>
        <use
           height="1052.3622"
           width="744.09448"
           xlink:href="#four_of_five_stars_in_column_1-1"
           x="50"
           y="42"
           id="use34-1" />
      </g>
      <use
         height="1052.3622"
         width="744.09448"
         y="0"
         transform="matrix(0.02561905,0,0,0.02561905,850.00002,-1467.6378)"
         xlink:href="#column_1-9"
         x="500"
         id="use44-2" />
      <g
         id="g3048"
         transform="matrix(0.02561905,0,0,0.02561905,852.56192,-1467.6378)">
        <g
           id="g3050">
          <g
             id="g3052">
            <g
               transform="matrix(24,0,0,24,50,42)"
               id="g3054"
               style="fill:#ffffff">
              <g
                 id="g3056">
                <polygon
                   transform="matrix(0.95105652,0.30901699,-0.30901699,0.95105652,0,-1)"
                   points="0,0 0,1 0.5,1 "
                   id="polygon3058" />
                <use
                   id="use3060"
                   transform="scale(-1,1)"
                   xlink:href="#triangle-5"
                   x="0"
                   y="0"
                   width="744.09448"
                   height="1052.3622" />
              </g>
              <use
                 id="use3062"
                 transform="matrix(0.30901699,0.95105652,-0.95105652,0.30901699,0,0)"
                 xlink:href="#cone-7"
                 x="0"
                 y="0"
                 width="744.09448"
                 height="1052.3622" />
              <use
                 id="use3064"
                 transform="matrix(0.30901699,-0.95105652,0.95105652,0.30901699,0,0)"
                 xlink:href="#cone-7"
                 x="0"
                 y="0"
                 width="744.09448"
                 height="1052.3622" />
              <use
                 id="use3066"
                 transform="matrix(-0.80901699,0.58778525,-0.58778525,-0.80901699,0,0)"
                 xlink:href="#cone-7"
                 x="0"
                 y="0"
                 width="744.09448"
                 height="1052.3622" />
              <use
                 id="use3068"
                 transform="matrix(-0.80901699,-0.58778525,0.58778525,-0.80901699,0,0)"
                 xlink:href="#cone-7"
                 x="0"
                 y="0"
                 width="744.09448"
                 height="1052.3622" />
              <path
                 id="path3070"
                 d="M -0.2,0 0.2,0 M 0,-0.2 0,0.2"
                 style="stroke:#000000;stroke-width:0.07"
                 inkscape:connector-curvature="0" />
            </g>
            <use
               id="use3072"
               y="84"
               xlink:href="#first_star-0"
               x="0"
               width="744.09448"
               height="1052.3622" />
            <use
               id="use3074"
               y="168"
               xlink:href="#first_star-0"
               x="0"
               width="744.09448"
               height="1052.3622" />
            <use
               id="use3076"
               y="252"
               xlink:href="#first_star-0"
               x="0"
               width="744.09448"
               height="1052.3622" />
          </g>
          <use
             id="use3078"
             y="336"
             xlink:href="#first_star-0"
             x="0"
             width="744.09448"
             height="1052.3622" />
        </g>
        <use
           id="use3080"
           y="42"
           x="50"
           xlink:href="#four_of_five_stars_in_column_1-1"
           width="744.09448"
           height="1052.3622" />
      </g>
      <g
         transform="matrix(0.02561905,0,0,0.02561905,855.12383,-1467.6378)"
         id="g3082">
        <g
           id="g3084">
          <g
             id="g3086">
            <g
               style="fill:#ffffff"
               id="g3088"
               transform="matrix(24,0,0,24,50,42)">
              <g
                 id="g3090">
                <polygon
                   id="polygon3092"
                   points="0,0 0,1 0.5,1 "
                   transform="matrix(0.95105652,0.30901699,-0.30901699,0.95105652,0,-1)" />
                <use
                   height="1052.3622"
                   width="744.09448"
                   y="0"
                   x="0"
                   xlink:href="#triangle-5"
                   transform="scale(-1,1)"
                   id="use3094" />
              </g>
              <use
                 height="1052.3622"
                 width="744.09448"
                 y="0"
                 x="0"
                 xlink:href="#cone-7"
                 transform="matrix(0.30901699,0.95105652,-0.95105652,0.30901699,0,0)"
                 id="use3096" />
              <use
                 height="1052.3622"
                 width="744.09448"
                 y="0"
                 x="0"
                 xlink:href="#cone-7"
                 transform="matrix(0.30901699,-0.95105652,0.95105652,0.30901699,0,0)"
                 id="use3098" />
              <use
                 height="1052.3622"
                 width="744.09448"
                 y="0"
                 x="0"
                 xlink:href="#cone-7"
                 transform="matrix(-0.80901699,0.58778525,-0.58778525,-0.80901699,0,0)"
                 id="use3100" />
              <use
                 height="1052.3622"
                 width="744.09448"
                 y="0"
                 x="0"
                 xlink:href="#cone-7"
                 transform="matrix(-0.80901699,-0.58778525,0.58778525,-0.80901699,0,0)"
                 id="use3102" />
              <path
                 style="stroke:#000000;stroke-width:0.07"
                 d="M -0.2,0 0.2,0 M 0,-0.2 0,0.2"
                 id="path3104"
                 inkscape:connector-curvature="0" />
            </g>
            <use
               height="1052.3622"
               width="744.09448"
               x="0"
               xlink:href="#first_star-0"
               y="84"
               id="use3106" />
            <use
               height="1052.3622"
               width="744.09448"
               x="0"
               xlink:href="#first_star-0"
               y="168"
               id="use3108" />
            <use
               height="1052.3622"
               width="744.09448"
               x="0"
               xlink:href="#first_star-0"
               y="252"
               id="use3110" />
          </g>
          <use
             height="1052.3622"
             width="744.09448"
             x="0"
             xlink:href="#first_star-0"
             y="336"
             id="use3112" />
        </g>
        <use
           height="1052.3622"
           width="744.09448"
           xlink:href="#four_of_five_stars_in_column_1-1"
           x="50"
           y="42"
           id="use3114" />
      </g>
      <g
         id="g3116"
         transform="matrix(0.02561905,0,0,0.02561905,857.68573,-1467.6378)">
        <g
           id="g3118">
          <g
             id="g3120">
            <g
               transform="matrix(24,0,0,24,50,42)"
               id="g3122"
               style="fill:#ffffff">
              <g
                 id="g3124">
                <polygon
                   transform="matrix(0.95105652,0.30901699,-0.30901699,0.95105652,0,-1)"
                   points="0.5,1 0,0 0,1 "
                   id="polygon3126" />
                <use
                   id="use3128"
                   transform="scale(-1,1)"
                   xlink:href="#triangle-5"
                   x="0"
                   y="0"
                   width="744.09448"
                   height="1052.3622" />
              </g>
              <use
                 id="use3130"
                 transform="matrix(0.30901699,0.95105652,-0.95105652,0.30901699,0,0)"
                 xlink:href="#cone-7"
                 x="0"
                 y="0"
                 width="744.09448"
                 height="1052.3622" />
              <use
                 id="use3132"
                 transform="matrix(0.30901699,-0.95105652,0.95105652,0.30901699,0,0)"
                 xlink:href="#cone-7"
                 x="0"
                 y="0"
                 width="744.09448"
                 height="1052.3622" />
              <use
                 id="use3134"
                 transform="matrix(-0.80901699,0.58778525,-0.58778525,-0.80901699,0,0)"
                 xlink:href="#cone-7"
                 x="0"
                 y="0"
                 width="744.09448"
                 height="1052.3622" />
              <use
                 id="use3136"
                 transform="matrix(-0.80901699,-0.58778525,0.58778525,-0.80901699,0,0)"
                 xlink:href="#cone-7"
                 x="0"
                 y="0"
                 width="744.09448"
                 height="1052.3622" />
              <path
                 id="path3138"
                 d="M -0.2,0 0.2,0 M 0,-0.2 0,0.2"
                 style="stroke:#000000;stroke-width:0.07"
                 inkscape:connector-curvature="0" />
            </g>
            <use
               id="use3140"
               y="84"
               xlink:href="#first_star-0"
               x="0"
               width="744.09448"
               height="1052.3622" />
            <use
               id="use3142"
               y="168"
               xlink:href="#first_star-0"
               x="0"
               width="744.09448"
               height="1052.3622" />
            <use
               id="use3144"
               y="252"
               xlink:href="#first_star-0"
               x="0"
               width="744.09448"
               height="1052.3622" />
          </g>
          <use
             id="use3146"
             y="336"
             xlink:href="#first_star-0"
             x="0"
             width="744.09448"
             height="1052.3622" />
        </g>
        <use
           id="use3148"
           y="42"
           x="50"
           xlink:href="#four_of_five_stars_in_column_1-1"
           width="744.09448"
           height="1052.3622" />
      </g>
      <g
         transform="matrix(0.02561905,0,0,0.02561905,860.24763,-1467.6378)"
         id="g3150">
        <g
           id="g3152">
          <g
             id="g3154">
            <g
               style="fill:#ffffff"
               id="g3156"
               transform="matrix(24,0,0,24,50,42)">
              <g
                 id="g3158">
                <polygon
                   id="polygon3160"
                   points="0.5,1 0,0 0,1 "
                   transform="matrix(0.95105652,0.30901699,-0.30901699,0.95105652,0,-1)" />
                <use
                   height="1052.3622"
                   width="744.09448"
                   y="0"
                   x="0"
                   xlink:href="#triangle-5"
                   transform="scale(-1,1)"
                   id="use3162" />
              </g>
              <use
                 height="1052.3622"
                 width="744.09448"
                 y="0"
                 x="0"
                 xlink:href="#cone-7"
                 transform="matrix(0.30901699,0.95105652,-0.95105652,0.30901699,0,0)"
                 id="use3164" />
              <use
                 height="1052.3622"
                 width="744.09448"
                 y="0"
                 x="0"
                 xlink:href="#cone-7"
                 transform="matrix(0.30901699,-0.95105652,0.95105652,0.30901699,0,0)"
                 id="use3166" />
              <use
                 height="1052.3622"
                 width="744.09448"
                 y="0"
                 x="0"
                 xlink:href="#cone-7"
                 transform="matrix(-0.80901699,0.58778525,-0.58778525,-0.80901699,0,0)"
                 id="use3168" />
              <use
                 height="1052.3622"
                 width="744.09448"
                 y="0"
                 x="0"
                 xlink:href="#cone-7"
                 transform="matrix(-0.80901699,-0.58778525,0.58778525,-0.80901699,0,0)"
                 id="use3170" />
              <path
                 style="stroke:#000000;stroke-width:0.07"
                 d="M -0.2,0 0.2,0 M 0,-0.2 0,0.2"
                 id="path3172"
                 inkscape:connector-curvature="0" />
            </g>
            <use
               height="1052.3622"
               width="744.09448"
               x="0"
               xlink:href="#first_star-0"
               y="84"
               id="use3174" />
            <use
               height="1052.3622"
               width="744.09448"
               x="0"
               xlink:href="#first_star-0"
               y="168"
               id="use3176" />
            <use
               height="1052.3622"
               width="744.09448"
               x="0"
               xlink:href="#first_star-0"
               y="252"
               id="use3178" />
          </g>
          <use
             height="1052.3622"
             width="744.09448"
             x="0"
             xlink:href="#first_star-0"
             y="336"
             id="use3180" />
        </g>
        <use
           height="1052.3622"
           width="744.09448"
           xlink:href="#four_of_five_stars_in_column_1-1"
           x="50"
           y="42"
           id="use3182" />
      </g>
    </g>
  </g>
</svg>
