<svg xmlns="http://www.w3.org/2000/svg" xmlns:xlink="http://www.w3.org/1999/xlink" width="270" height="180.001"><g transform="matrix(9 0 0 9 -7650 13208.741)"><path fill="#fff" d="M850-1467.638h30v20h-30z"/><path fill="#bf0a30" d="M850-1458.418h30v1.54h-30zm0 6.16h30v1.54h-30zm0-9.24h30v1.54h-30zm0-3.08h30v1.54h-30zm0-3.06h30v1.54h-30zm0 18.46h30v1.54h-30zm0-6.16h30v1.54h-30z"/><path fill="#002868" d="M850-1467.638h15.371v10.76H850z"/><g transform="translate(850 -1467.638) scale(.02562)"><g id="e"><g id="d"><g id="c" transform="matrix(24 0 0 24 50 42)" fill="#fff"><g id="b"><path id="a" transform="rotate(18 3.157 -.5)" d="M0 1h.5L0 0z"/><use height="1052.362" width="744.094" xlink:href="#a" transform="scale(-1 1)"/></g><use height="1052.362" width="744.094" xlink:href="#b" transform="rotate(72)"/><use height="1052.362" width="744.094" xlink:href="#b" transform="rotate(-72)"/><use height="1052.362" width="744.094" xlink:href="#b" transform="rotate(144)"/><use height="1052.362" width="744.094" xlink:href="#b" transform="rotate(-144)"/><path d="M-.2 0h.4M0-.2v.4" stroke="#000" stroke-width=".07"/></g><use height="1052.362" width="744.094" xlink:href="#c" y="84"/><use height="1052.362" width="744.094" xlink:href="#c" y="168"/><use height="1052.362" width="744.094" xlink:href="#c" y="252"/></g><use height="1052.362" width="744.094" xlink:href="#c" y="336"/></g><use height="1052.362" width="744.094" xlink:href="#d" x="50" y="42"/></g><use height="1052.362" width="744.094" transform="translate(850 -1467.638) scale(.02562)" xlink:href="#e" x="500"/><g transform="translate(852.562 -1467.638) scale(.02562)"><g transform="matrix(24 0 0 24 50 42)" fill="#fff"><path d="M0-1l-.309.951.476.155z"/><use transform="scale(-1 1)" xlink:href="#a" width="744.094" height="1052.362"/><use transform="rotate(72)" xlink:href="#b" width="744.094" height="1052.362"/><use transform="rotate(-72)" xlink:href="#b" width="744.094" height="1052.362"/><use transform="rotate(144)" xlink:href="#b" width="744.094" height="1052.362"/><use transform="rotate(-144)" xlink:href="#b" width="744.094" height="1052.362"/><path d="M-.2 0h.4M0-.2v.4" stroke="#000" stroke-width=".07"/></g><use y="84" xlink:href="#c" width="744.094" height="1052.362"/><use y="168" xlink:href="#c" width="744.094" height="1052.362"/><use y="252" xlink:href="#c" width="744.094" height="1052.362"/><use y="336" xlink:href="#c" width="744.094" height="1052.362"/><use y="42" x="50" xlink:href="#d" width="744.094" height="1052.362"/></g><g transform="translate(855.124 -1467.638) scale(.02562)"><g transform="matrix(24 0 0 24 50 42)" fill="#fff"><path d="M0-1l-.309.951.476.155z"/><use height="1052.362" width="744.094" xlink:href="#a" transform="scale(-1 1)"/><use height="1052.362" width="744.094" xlink:href="#b" transform="rotate(72)"/><use height="1052.362" width="744.094" xlink:href="#b" transform="rotate(-72)"/><use height="1052.362" width="744.094" xlink:href="#b" transform="rotate(144)"/><use height="1052.362" width="744.094" xlink:href="#b" transform="rotate(-144)"/><path d="M-.2 0h.4M0-.2v.4" stroke="#000" stroke-width=".07"/></g><use height="1052.362" width="744.094" xlink:href="#c" y="84"/><use height="1052.362" width="744.094" xlink:href="#c" y="168"/><use height="1052.362" width="744.094" xlink:href="#c" y="252"/><use height="1052.362" width="744.094" xlink:href="#c" y="336"/><use height="1052.362" width="744.094" xlink:href="#d" x="50" y="42"/></g><g transform="translate(857.686 -1467.638) scale(.02562)"><g transform="matrix(24 0 0 24 50 42)" fill="#fff"><path d="M.167.106L0-1l-.309.951z"/><use transform="scale(-1 1)" xlink:href="#a" width="744.094" height="1052.362"/><use transform="rotate(72)" xlink:href="#b" width="744.094" height="1052.362"/><use transform="rotate(-72)" xlink:href="#b" width="744.094" height="1052.362"/><use transform="rotate(144)" xlink:href="#b" width="744.094" height="1052.362"/><use transform="rotate(-144)" xlink:href="#b" width="744.094" height="1052.362"/><path d="M-.2 0h.4M0-.2v.4" stroke="#000" stroke-width=".07"/></g><use y="84" xlink:href="#c" width="744.094" height="1052.362"/><use y="168" xlink:href="#c" width="744.094" height="1052.362"/><use y="252" xlink:href="#c" width="744.094" height="1052.362"/><use y="336" xlink:href="#c" width="744.094" height="1052.362"/><use y="42" x="50" xlink:href="#d" width="744.094" height="1052.362"/></g><g transform="translate(860.248 -1467.638) scale(.02562)"><g transform="matrix(24 0 0 24 50 42)" fill="#fff"><path d="M.167.106L0-1l-.309.951z"/><use height="1052.362" width="744.094" xlink:href="#a" transform="scale(-1 1)"/><use height="1052.362" width="744.094" xlink:href="#b" transform="rotate(72)"/><use height="1052.362" width="744.094" xlink:href="#b" transform="rotate(-72)"/><use height="1052.362" width="744.094" xlink:href="#b" transform="rotate(144)"/><use height="1052.362" width="744.094" xlink:href="#b" transform="rotate(-144)"/><path d="M-.2 0h.4M0-.2v.4" stroke="#000" stroke-width=".07"/></g><use height="1052.362" width="744.094" xlink:href="#c" y="84"/><use height="1052.362" width="744.094" xlink:href="#c" y="168"/><use height="1052.362" width="744.094" xlink:href="#c" y="252"/><use height="1052.362" width="744.094" xlink:href="#c" y="336"/><use height="1052.362" width="744.094" xlink:href="#d" x="50" y="42"/></g></g></svg>