<?xml version="1.0" encoding="UTF-8" standalone="no"?>
<!-- Created with Inkscape (http://www.inkscape.org/) -->

<svg
   xmlns:dc="http://purl.org/dc/elements/1.1/"
   xmlns:cc="http://creativecommons.org/ns#"
   xmlns:rdf="http://www.w3.org/1999/02/22-rdf-syntax-ns#"
   xmlns:svg="http://www.w3.org/2000/svg"
   xmlns="http://www.w3.org/2000/svg"
   xmlns:xlink="http://www.w3.org/1999/xlink"
   xmlns:sodipodi="http://sodipodi.sourceforge.net/DTD/sodipodi-0.dtd"
   xmlns:inkscape="http://www.inkscape.org/namespaces/inkscape"
   width="48px"
   height="48px"
   id="svg4066"
   version="1.1"
   inkscape:version="0.48.3.1 r9886"
   sodipodi:docname="logo.svg">
  <defs
     id="defs4068">
    <linearGradient
       inkscape:collect="always"
       xlink:href="#linearGradient4634"
       id="linearGradient4640"
       x1="831.94257"
       y1="-54.094429"
       x2="869.94257"
       y2="-16.094429"
       gradientUnits="userSpaceOnUse" />
    <linearGradient
       id="linearGradient4634">
      <stop
         style="stop-color:#646464;stop-opacity:1;"
         offset="0"
         id="stop4636" />
      <stop
         style="stop-color:#151515;stop-opacity:1;"
         offset="1"
         id="stop4638" />
    </linearGradient>
  </defs>
  <sodipodi:namedview
     id="base"
     pagecolor="#ffffff"
     bordercolor="#666666"
     borderopacity="1.0"
     inkscape:pageopacity="0.0"
     inkscape:pageshadow="2"
     inkscape:zoom="1.2374369"
     inkscape:cx="-83.583453"
     inkscape:cy="-329.68887"
     inkscape:current-layer="layer1"
     showgrid="true"
     inkscape:grid-bbox="true"
     inkscape:document-units="px"
     inkscape:window-width="1600"
     inkscape:window-height="813"
     inkscape:window-x="0"
     inkscape:window-y="27"
     inkscape:window-maximized="1">
    <inkscape:grid
       type="xygrid"
       id="grid3104" />
  </sodipodi:namedview>
  <metadata
     id="metadata4071">
    <rdf:RDF>
      <cc:Work
         rdf:about="">
        <dc:format>image/svg+xml</dc:format>
        <dc:type
           rdf:resource="http://purl.org/dc/dcmitype/StillImage" />
        <dc:title />
      </cc:Work>
    </rdf:RDF>
  </metadata>
  <g
     id="layer1"
     inkscape:label="Layer 1"
     inkscape:groupmode="layer">
    <rect
       style="fill:#5e7a90;fill-opacity:1;stroke:none"
       id="rect4554"
       width="48"
       height="48"
       x="0"
       y="0"
       inkscape:export-xdpi="37.894737"
       inkscape:export-ydpi="37.894737"
       inkscape:export-filename="/home/nfroidure/Bureau/LocalServer/elitwork/insert/www/images/favicon.png"
       ry="12.442696" />
    <text
       xml:space="preserve"
       style="font-size:34.87918472px;font-style:normal;font-variant:normal;font-weight:normal;font-stretch:normal;fill:#ffffff;fill-opacity:1;stroke:none;font-family:FreeSans;-inkscape-font-specification:FreeSans"
       x="12.140471"
       y="38.017952"
       id="text2857-4"
       inkscape:export-filename="/home/nfroidure/Bureau/LocalServer/elitwork/insert/www/images/header.png"
       inkscape:export-xdpi="90"
       inkscape:export-ydpi="90"><tspan
         sodipodi:role="line"
         id="tspan2859-7"
         x="12.140471"
         y="38.017952"
         style="font-size:34.87918472px;font-style:normal;font-variant:normal;font-weight:normal;font-stretch:normal;fill:#ffffff;font-family:FreeSans;-inkscape-font-specification:FreeSans" /></text>
    <text
       xml:space="preserve"
       style="font-size:34.87918472px;font-style:normal;font-variant:normal;font-weight:normal;font-stretch:normal;fill:#ffffff;fill-opacity:1;stroke:none;font-family:FreeSans;-inkscape-font-specification:FreeSans"
       x="5.5682564"
       y="38.017952"
       id="text2851-4"
       inkscape:export-filename="/home/nfroidure/Bureau/LocalServer/elitwork/insert/www/images/header.png"
       inkscape:export-xdpi="90"
       inkscape:export-ydpi="90"><tspan
         sodipodi:role="line"
         x="5.5682564"
         y="38.017952"
         id="tspan2855-55">&gt;</tspan></text>
    <text
       xml:space="preserve"
       style="font-size:40px;font-style:normal;font-variant:normal;font-weight:bold;font-stretch:normal;line-height:125%;letter-spacing:0px;word-spacing:0px;fill:#000000;fill-opacity:1;stroke:none;font-family:Arial;-inkscape-font-specification:Arial Bold"
       x="-112.71428"
       y="82.154015"
       id="text2993"
       sodipodi:linespacing="125%"><tspan
         sodipodi:role="line"
         id="tspan2995"
         x="-112.71428"
         y="82.154015"
         style="font-style:normal;font-variant:normal;font-weight:normal;font-stretch:normal;font-family:Andale Mono;-inkscape-font-specification:Andale Mono">INSERT</tspan></text>
    <text
       xml:space="preserve"
       style="font-size:40px;font-style:normal;font-variant:normal;font-weight:normal;font-stretch:normal;line-height:125%;letter-spacing:0px;word-spacing:0px;fill:#000000;fill-opacity:1;stroke:none;font-family:Andale Mono;-inkscape-font-specification:Andale Mono"
       x="21.563606"
       y="82.154015"
       id="text2993-2"
       sodipodi:linespacing="125%"><tspan
         sodipodi:role="line"
         id="tspan2995-1"
         x="21.563606"
         y="82.154015">:AFTER</tspan></text>
    <path
       inkscape:connector-curvature="0"
       id="path3067"
       style="font-size:40px;font-style:normal;font-variant:normal;font-weight:normal;font-stretch:normal;line-height:125%;letter-spacing:0px;word-spacing:0px;fill:#000000;fill-opacity:1;stroke:none;font-family:Webdings;-inkscape-font-specification:Webdings"
       d="m -109.4762,98.273433 7.51953,0 L -102,128 l -7.51953,0 0.0433,-29.726567"
       sodipodi:nodetypes="ccccc" />
    <path
       inkscape:connector-curvature="0"
       id="path3069"
       style="font-size:40px;font-style:normal;font-variant:normal;font-weight:normal;font-stretch:normal;line-height:125%;letter-spacing:0px;word-spacing:0px;fill:#000000;fill-opacity:1;stroke:none;font-family:Webdings;-inkscape-font-specification:Webdings"
       d="m -81,118 0,10 -7,0 0,-3 0,-8 c -1.9e-5,-1.88801 0.04852,-2.95181 -0.04261,-3.66797 -0.07814,-0.71613 -0.221372,-1.24348 -0.429688,-1.58203 -0.273455,-0.45572 -0.644548,-0.80728 -1.113281,-1.05469 -0.468766,-0.2604 -1.00262,-0.39061 -1.601562,-0.39063 -1.899573,0.65078 -2.670929,4.3073 -2.6875,6.36719 L -94,128 l -6.99219,0 0,-22 6.99219,0 0.125359,2.76171 C -92.651467,107.27642 -90.750625,106.00647 -90,106 c 2.526021,2e-5 4.440082,0.77476 5.742187,2.32421 1.31508,1.5495 3.257787,3.72007 3.257813,6.67579"
       sodipodi:nodetypes="cccccccccccccccccc" />
    <path
       inkscape:connector-curvature="0"
       id="path3071"
       style="font-size:40px;font-style:normal;font-variant:normal;font-weight:normal;font-stretch:normal;line-height:125%;letter-spacing:0px;word-spacing:0px;fill:#000000;fill-opacity:1;stroke:none;font-family:Webdings;-inkscape-font-specification:Webdings"
       d="m -59.26136,106.24218 0,5.3125 c -1.497415,-0.62498 -2.942726,-1.09373 -4.335938,-1.40625 -1.393244,-0.31248 -2.708346,-0.46873 -3.945312,-0.46875 -1.328136,2e-5 -2.317718,0.16929 -2.96875,0.50782 -0.63803,0.32553 -0.95704,0.83335 -0.957031,1.52343 -9e-6,0.55991 0.240877,0.9896 0.722656,1.28907 0.494782,0.29949 1.373687,0.52084 2.636719,0.66406 l 1.230468,0.17578 c 3.580713,0.45574 5.989565,1.20444 7.226563,2.24609 1.236958,1.04168 1.855447,2.67579 1.855469,4.90235 -2.2e-5,2.33073 -0.859396,4.08203 -2.578125,5.2539 -1.718768,1.17188 -4.28387,1.75781 -7.695313,1.75782 -1.445323,-1e-5 -2.942717,-0.11719 -4.492187,-0.35157 -1.536464,-0.22135 -3.118494,-0.55989 -4.746094,-1.01562 l 0,-5.3125 c 1.393225,0.67709 2.819005,1.1849 4.277344,1.52344 1.471346,0.33854 2.96223,0.50781 4.472656,0.50781 1.367175,0 2.39582,-0.1888 3.085937,-0.56641 0.69009,-0.3776 1.035141,-0.93749 1.035157,-1.67969 -1.6e-5,-0.62499 -0.240901,-1.08723 -0.722657,-1.38671 -0.468764,-0.3125 -1.412773,-0.55338 -2.832031,-0.72266 l -1.230469,-0.15625 c -3.111986,-0.39062 -5.292974,-1.11327 -6.542968,-2.16797 -1.250003,-1.05468 -1.875002,-2.65624 -1.875,-4.80469 -2e-6,-2.31769 0.794268,-4.03644 2.382812,-5.15625 1.588536,-1.11977 4.023429,-1.67966 7.304688,-1.67968 1.289049,2e-5 2.643214,0.0977 4.0625,0.29296 1.419253,0.19534 2.96222,0.50133 4.628906,0.91797" />
    <path
       inkscape:connector-curvature="0"
       id="path3073"
       style="font-size:40px;font-style:normal;font-variant:normal;font-weight:normal;font-stretch:normal;line-height:125%;letter-spacing:0px;word-spacing:0px;fill:#000000;fill-opacity:1;stroke:none;font-family:Webdings;-inkscape-font-specification:Webdings"
       d="m -34.687141,116.4375 0,1.99218 -16.347657,0 c 0.169262,1.64064 0.761709,2.8711 1.777344,3.69141 1.015613,0.82032 2.434883,1.23047 4.257813,1.23047 1.471337,0 2.975242,-0.21484 4.511718,-0.64453 1.549459,-0.44271 3.137999,-1.10677 4.765625,-1.99219 l 0,5.39062 c -1.653668,0.62501 -3.307312,1.09375 -4.960937,1.40625 -1.653664,0.32552 -3.307308,0.48828 -4.960938,0.48829 -3.958343,-1e-5 -7.037767,-1.00261 -9.238281,-3.00782 -2.187503,-2.01822 -3.281252,-4.84374 -3.28125,-8.47656 -2e-6,-3.56769 1.074216,-6.37368 3.222656,-8.41797 2.161452,-2.04425 5.130199,-3.06638 8.90625,-3.0664 3.437483,2e-5 6.184876,1.03517 8.242188,3.10546 2.070288,2.07033 3.105443,4.83726 3.105469,8.30079 m -7.1875,-2.32422 c -1.8e-5,-1.32811 -0.390643,-2.39582 -1.171875,-3.20313 -0.768246,-0.82029 -1.777359,-1.23045 -3.027344,-1.23047 -1.354179,2e-5 -2.454439,0.38414 -3.300781,1.15235 -0.846364,0.75522 -1.373707,1.84897 -1.582032,3.28125 l 9.082032,0" />
    <path
       inkscape:connector-curvature="0"
       id="path3075"
       style="font-size:40px;font-style:normal;font-variant:normal;font-weight:normal;font-stretch:normal;line-height:125%;letter-spacing:0px;word-spacing:0px;fill:#000000;fill-opacity:1;stroke:none;font-family:Webdings;-inkscape-font-specification:Webdings"
       d="m -16,110 c 0.03558,-0.0639 -4.204085,0.67579 -4.816048,0.67578 -1.796889,1e-5 -3.183606,0.57944 -4.160156,1.73828 -0.963552,1.14585 -1.445323,2.79298 -1.445312,4.9414 l 0,10.07813 -6.992188,0 0,-21.875 6.992188,0 0,3.59375 c 0.898426,-1.43227 1.927071,-2.47394 3.085937,-3.125 1.17186,-0.66404 2.571599,-0.99607 4.199219,-0.99609 0.234357,2e-5 0.488263,0.013 0.761719,0.0391"
       sodipodi:nodetypes="cccscccccccc" />
    <path
       inkscape:connector-curvature="0"
       id="path3077"
       style="font-size:40px;font-style:normal;font-variant:normal;font-weight:normal;font-stretch:normal;line-height:125%;letter-spacing:0px;word-spacing:0px;fill:#000000;fill-opacity:1;stroke:none;font-family:Webdings;-inkscape-font-specification:Webdings"
       d="m -6.01136,99.34765 0,6.21094 7.207031,0 0,5 -7.207031,0 0,9.27734 c -1.1e-5,1.01563 0.201812,1.70574 0.605469,2.07032 0.403633,0.35156 1.204414,0.52734 2.402343,0.52734 l 3.59375,0 0,5 -5.996093,0 c -2.7604259,0 -4.720059,-0.57292 -5.878907,-1.71875 -1.145838,-1.15885 -1.718754,-3.11849 -1.71875,-5.87891 l 0,-9.27734 -3.476562,0 0,-5 3.476562,0 0,-6.21094 6.992188,0" />
    <path
       inkscape:connector-curvature="0"
       id="path3080"
       style="font-size:40px;font-style:normal;font-variant:normal;font-weight:normal;font-stretch:normal;line-height:125%;letter-spacing:0px;word-spacing:0px;fill:#000000;fill-opacity:1;stroke:none;font-family:Webdings;-inkscape-font-specification:Webdings"
       d="m 7.602472,105.55859 7.050782,0 0,7.55859 -7.050782,0 0,-7.55859 m 0,14.31641 7.050782,0 0,7.55859 -7.050782,0 0,-7.55859" />
    <path
       inkscape:connector-curvature="0"
       id="path3082"
       style="font-size:40px;font-style:normal;font-variant:normal;font-weight:normal;font-stretch:normal;line-height:125%;letter-spacing:0px;word-spacing:0px;fill:#000000;fill-opacity:1;stroke:none;font-family:Webdings;-inkscape-font-specification:Webdings"
       d="m 32.309504,117.58984 c -1.458345,1e-5 -2.558605,0.2474 -3.300782,0.74219 -0.729175,0.4948 -1.093758,1.22396 -1.09375,2.1875 -8e-6,0.88542 0.29296,1.58203 0.878907,2.08984 0.598948,0.4948 1.42577,0.74219 2.480468,0.74219 1.315091,0 2.421861,-0.46875 3.320313,-1.40625 0.898421,-0.95052 1.347639,-2.13541 1.347656,-3.55469 l 0,-0.80078 -3.632812,0 m 10.683593,-2.63672 0,12.48047 -7.050781,0 0,-3.24219 c -0.937516,1.32813 -1.992202,2.29818 -3.164062,2.91016 -1.171888,0.59896 -2.597668,0.89843 -4.277344,0.89844 -2.265632,-1e-5 -4.108078,-0.65756 -5.527344,-1.97266 -1.406252,-1.32812 -2.109377,-3.04687 -2.109375,-5.15625 -2e-6,-2.5651 0.878904,-4.4466 2.636719,-5.64453 1.770827,-1.19791 4.544262,-1.79686 8.320312,-1.79688 l 4.121094,0 0,-0.54687 c -1.7e-5,-1.10676 -0.436214,-1.91405 -1.308594,-2.42188 -0.87241,-0.52081 -2.233086,-0.78123 -4.082031,-0.78125 -1.497406,2e-5 -2.890633,0.14976 -4.179687,0.44922 -1.289069,0.2995 -2.486984,0.74872 -3.59375,1.34766 l 0,-5.33203 c 1.49739,-0.36456 3.001295,-0.638 4.511718,-0.82032 1.510407,-0.19529 3.020822,-0.29294 4.53125,-0.29296 3.945296,2e-5 6.790345,0.78127 8.535157,2.34375 1.757789,1.54949 2.636694,4.07553 2.636718,7.57812" />
    <path
       inkscape:connector-curvature="0"
       id="path3084"
       style="font-size:40px;font-style:normal;font-variant:normal;font-weight:normal;font-stretch:normal;line-height:125%;letter-spacing:0px;word-spacing:0px;fill:#000000;fill-opacity:1;stroke:none;font-family:Webdings;-inkscape-font-specification:Webdings"
       d="m 63.930597,97.042964 0,4.589846 -3.867187,0 c -0.989596,2e-5 -1.6797,0.18232 -2.070313,0.54687 -0.390636,0.35159 -0.585948,0.97008 -0.585937,1.85547 l 0,1.52344 5.976562,0 0,5 -5.976562,0 0,16.875 -6.992188,0 0,-16.875 -3.476562,0 0,-5 3.476562,0 0,-1.52344 c -4e-6,-2.38278 0.664058,-4.1406 1.992188,-5.273436 1.328117,-1.145803 3.385407,-1.718719 6.171875,-1.71875 l 5.351562,0" />
    <path
       inkscape:connector-curvature="0"
       id="path3086"
       style="font-size:40px;font-style:normal;font-variant:normal;font-weight:normal;font-stretch:normal;line-height:125%;letter-spacing:0px;word-spacing:0px;fill:#000000;fill-opacity:1;stroke:none;font-family:Webdings;-inkscape-font-specification:Webdings"
       d="m 74.59466,99.34765 0,6.21094 7.207031,0 0,5 -7.207031,0 0,9.27734 c -1.1e-5,1.01563 0.201812,1.70574 0.605469,2.07032 0.403633,0.35156 1.204414,0.52734 2.402343,0.52734 l 3.59375,0 0,5 -5.996093,0 c -2.760426,0 -4.720059,-0.57292 -5.878907,-1.71875 -1.145838,-1.15885 -1.718754,-3.11849 -1.71875,-5.87891 l 0,-9.27734 -3.476562,0 0,-5 3.476562,0 0,-6.21094 6.992188,0" />
    <path
       inkscape:connector-curvature="0"
       id="path3088"
       style="font-size:40px;font-style:normal;font-variant:normal;font-weight:normal;font-stretch:normal;line-height:125%;letter-spacing:0px;word-spacing:0px;fill:#000000;fill-opacity:1;stroke:none;font-family:Webdings;-inkscape-font-specification:Webdings"
       d="m 107.9345,116.4375 0,1.99218 -16.34765,0 c 0.16926,1.64064 0.76171,2.8711 1.77734,3.69141 1.01561,0.82032 2.43488,1.23047 4.25781,1.23047 1.47134,0 2.97525,-0.21484 4.51172,-0.64453 1.54946,-0.44271 3.138,-1.10677 4.76563,-1.99219 l 0,5.39062 c -1.65367,0.62501 -3.30732,1.09375 -4.96094,1.40625 -1.65366,0.32552 -3.30731,0.48828 -4.96094,0.48829 -3.95834,-1e-5 -7.03777,-1.00261 -9.23828,-3.00782 -2.1875,-2.01822 -3.28125,-4.84374 -3.28125,-8.47656 0,-3.56769 1.07422,-6.37368 3.22266,-8.41797 2.16145,-2.04425 5.1302,-3.06638 8.90625,-3.0664 3.43748,2e-5 6.18487,1.03517 8.24218,3.10546 2.07029,2.07033 3.10545,4.83726 3.10547,8.30079 m -7.1875,-2.32422 c -1e-5,-1.32811 -0.39064,-2.39582 -1.17187,-3.20313 -0.76825,-0.82029 -1.77736,-1.23045 -3.02735,-1.23047 -1.35417,2e-5 -2.45443,0.38414 -3.30078,1.15235 -0.84636,0.75522 -1.3737,1.84897 -1.58203,3.28125 l 9.08203,0" />
    <path
       inkscape:connector-curvature="0"
       id="path3090"
       style="font-size:40px;font-style:normal;font-variant:normal;font-weight:normal;font-stretch:normal;line-height:125%;letter-spacing:0px;word-spacing:0px;fill:#000000;fill-opacity:1;stroke:none;font-family:Webdings;-inkscape-font-specification:Webdings"
       d="m 129.45794,111.51562 c -0.612,-0.28644 -1.22398,-0.49477 -1.83594,-0.625 -0.59897,-0.14321 -1.20444,-0.21483 -1.8164,-0.21484 -1.79689,1e-5 -3.18361,0.57944 -4.16016,1.73828 -0.96355,1.14585 -1.44532,2.79298 -1.44531,4.9414 l 0,10.07813 -6.99219,0 0,-21.875 6.99219,0 0,3.59375 c 0.89842,-1.43227 1.92707,-2.47394 3.08594,-3.125 1.17186,-0.66404 2.57159,-0.99607 4.19921,-0.99609 0.23436,2e-5 0.48827,0.013 0.76172,0.0391 0.27342,0.013 0.67056,0.0521 1.19141,0.11719 l 0.0195,6.32812" />
    <path
       inkscape:connector-curvature="0"
       id="path3147"
       style="font-size:33.44191742px;font-style:normal;font-variant:normal;font-weight:normal;font-stretch:normal;line-height:125%;letter-spacing:0px;word-spacing:0px;fill:#000000;fill-opacity:1;stroke:none;font-family:Andale Mono;-inkscape-font-specification:Andale Mono"
       d="m -131.48046,248.00001 -12.51954,0 0,-2.02693 4.7461,0 0,-15.94615 -4.7461,0 0,-2.02692 12.51954,0 0,2.02692 -4.57032,0 0,15.94615 4.57032,0 0,2.02693" />
    <path
       inkscape:connector-curvature="0"
       id="path3149"
       style="font-size:33.44191742px;font-style:normal;font-variant:normal;font-weight:normal;font-stretch:normal;line-height:125%;letter-spacing:0px;word-spacing:0px;fill:#000000;fill-opacity:1;stroke:none;font-family:Andale Mono;-inkscape-font-specification:Andale Mono"
       d="m -112.77968,248.00001 -3.55468,0 -9.88282,-15.79022 0,15.79022 -3.20312,0 0,-20 3.57422,0 9.92187,15.64848 0,-15.64848 3.14453,0 0,20" />
    <path
       inkscape:connector-curvature="0"
       id="path3151"
       style="font-size:33.44191742px;font-style:normal;font-variant:normal;font-weight:normal;font-stretch:normal;line-height:125%;letter-spacing:0px;word-spacing:0px;fill:#000000;fill-opacity:1;stroke:none;font-family:Andale Mono;-inkscape-font-specification:Andale Mono"
       d="m -97.282029,230.4983 c -1.640642,-0.39134 -3.196631,-0.58701 -4.667971,-0.58703 -1.66668,2e-5 -3.02735,0.2685 -4.08203,0.80546 -1.04167,0.52788 -1.56251,1.28329 -1.5625,2.26621 -10e-6,1.16498 1.37369,2.18887 4.12109,3.07168 2.03124,0.65529 3.37239,1.11036 4.023442,1.36518 0.664047,0.25484 1.334618,0.60525 2.011719,1.0512 0.677064,0.44597 1.217429,0.97384 1.621094,1.58361 0.416647,0.60069 0.62498,1.27874 0.625,2.03413 -2e-5,1.87486 -0.904967,3.33107 -2.714844,4.3686 -1.79689,1.02844 -3.919281,1.54266 -6.367191,1.54267 -2.36979,-1e-5 -4.44662,-0.32765 -6.23046,-0.98294 l 0.66406,-1.92491 c 2.09635,0.66439 3.92577,0.99659 5.48828,0.99659 1.8229,0 3.28123,-0.32765 4.374999,-0.98295 1.106754,-0.66438 1.660139,-1.57451 1.660156,-2.73037 -1.7e-5,-0.85551 -0.35809,-1.57906 -1.074219,-2.17065 -0.716166,-0.60067 -2.037776,-1.21045 -3.964846,-1.82935 -1.97918,-0.63707 -3.26172,-1.06938 -3.84765,-1.29692 -0.57293,-0.23663 -1.14584,-0.55972 -1.71875,-0.96929 -0.57292,-0.40954 -1.01563,-0.86916 -1.32813,-1.37884 -0.3125,-0.50965 -0.46875,-1.06483 -0.46875,-1.66553 0,-1.5927 0.82031,-2.83502 2.46094,-3.72696 1.64062,-0.8919 3.71743,-1.33787 6.23047,-1.33788 1.83592,1e-5 3.658835,0.19569 5.468747,0.58703 l -0.722656,1.91126" />
    <path
       inkscape:connector-curvature="0"
       id="path3153"
       style="font-size:33.44191742px;font-style:normal;font-variant:normal;font-weight:normal;font-stretch:normal;line-height:125%;letter-spacing:0px;word-spacing:0px;fill:#000000;fill-opacity:1;stroke:none;font-family:Andale Mono;-inkscape-font-specification:Andale Mono"
       d="m -78.737494,248.00001 -14.394533,0 0,-20 14.277344,0 0,2.02692 -11.074218,0 0,6.19419 10.644531,0 0,2.02695 -10.644531,0 0,7.72501 11.191407,0 0,2.02693" />
    <path
       inkscape:connector-curvature="0"
       id="path3155"
       style="font-size:33.44191742px;font-style:normal;font-variant:normal;font-weight:normal;font-stretch:normal;line-height:125%;letter-spacing:0px;word-spacing:0px;fill:#000000;fill-opacity:1;stroke:none;font-family:Andale Mono;-inkscape-font-specification:Andale Mono"
       d="m -57.82968,248.00001 -4.003907,0 -8.085937,-9.08576 -3.554688,0 0,9.08576 -3.203126,0 0,-20 7.79297,0 c 2.617173,2e-5 4.680973,0.46304 6.191406,1.38908 1.523418,0.91663 2.285136,2.19705 2.285156,3.84125 -2e-5,1.21901 -0.553405,2.30571 -1.660156,3.2601 -1.106788,0.94497 -2.630224,1.58754 -4.570312,1.92772 l 8.808594,9.58185 m -15.644532,-11.11268 4.042969,0 c 1.692696,0 3.066392,-0.33073 4.121093,-0.99221 1.054672,-0.6709 1.582015,-1.51192 1.582032,-2.52303 -1.7e-5,-2.23008 -1.875015,-3.34514 -5.625001,-3.34516 l -4.121093,0 0,6.8604" />
    <path
       inkscape:connector-curvature="0"
       id="path3157"
       style="font-size:33.44191742px;font-style:normal;font-variant:normal;font-weight:normal;font-stretch:normal;line-height:125%;letter-spacing:0px;word-spacing:0px;fill:#000000;fill-opacity:1;stroke:none;font-family:Andale Mono;-inkscape-font-specification:Andale Mono"
       d="m -37.55468,229.8852 -8.496095,0 0,18.11481 -3.183594,0 0,-18.11481 -8.535155,0 0,-1.88519 20.214844,0 0,1.88519" />
    <path
       inkscape:connector-curvature="0"
       id="path3134"
       style="font-size:33.44191742px;font-style:normal;font-variant:normal;font-weight:normal;font-stretch:normal;line-height:125%;letter-spacing:0px;word-spacing:0px;fill:#000000;fill-opacity:1;stroke:none;font-family:Andale Mono;-inkscape-font-specification:Andale Mono"
       d="m 142.50836,233.35154 c 0.66405,2e-5 1.22395,0.15929 1.67969,0.47782 0.45572,0.30945 0.68358,0.6917 0.68359,1.14675 -1e-5,0.45508 -0.22787,0.84188 -0.68359,1.16041 -0.45574,0.30946 -1.01564,0.46418 -1.67969,0.46417 -0.65105,1e-5 -1.20444,-0.15471 -1.66015,-0.46417 -0.44272,-0.31853 -0.66408,-0.70533 -0.66407,-1.16041 -1e-5,-0.45505 0.22135,-0.8373 0.66407,-1.14675 0.45571,-0.31853 1.0091,-0.4778 1.66015,-0.47782 m 0,11.41297 c 0.66405,0 1.22395,0.15472 1.67969,0.46417 0.45572,0.30944 0.68358,0.69624 0.68359,1.16041 -1e-5,0.45506 -0.22787,0.83731 -0.68359,1.14675 -0.45574,0.30944 -1.01564,0.46417 -1.67969,0.46417 -0.65105,0 -1.20444,-0.15473 -1.66015,-0.46417 -0.44272,-0.30944 -0.66408,-0.69169 -0.66407,-1.14675 -1e-5,-0.46417 0.22135,-0.85097 0.66407,-1.16041 0.45571,-0.30945 1.0091,-0.46417 1.66015,-0.46417" />
    <path
       inkscape:connector-curvature="0"
       id="path3136"
       style="font-size:33.44191742px;font-style:normal;font-variant:normal;font-weight:normal;font-stretch:normal;line-height:125%;letter-spacing:0px;word-spacing:0px;fill:#000000;fill-opacity:1;stroke:none;font-family:Andale Mono;-inkscape-font-specification:Andale Mono"
       d="m 177.62555,248.00001 -3.35937,0 -3.04688,-6.74403 -9.04297,0 -3.08593,6.74403 -3.32032,0 9.00391,-19.26279 3.84766,0 9.0039,19.26279 m -7.32422,-8.69624 -3.61328,-7.97269 -3.59375,7.97269 7.20703,0" />
    <path
       inkscape:connector-curvature="0"
       id="path3138"
       style="font-size:33.44191742px;font-style:normal;font-variant:normal;font-weight:normal;font-stretch:normal;line-height:125%;letter-spacing:0px;word-spacing:0px;fill:#000000;fill-opacity:1;stroke:none;font-family:Andale Mono;-inkscape-font-specification:Andale Mono"
       d="m 198.25055,230.68943 -11.40625,0 0,6.29352 10.39063,0 0,1.95222 -10.39063,0 0,9.06484 -3.20312,0 0,-19.26279 14.60937,0 0,1.95221" />
    <path
       inkscape:connector-curvature="0"
       id="path3140"
       style="font-size:33.44191742px;font-style:normal;font-variant:normal;font-weight:normal;font-stretch:normal;line-height:125%;letter-spacing:0px;word-spacing:0px;fill:#000000;fill-opacity:1;stroke:none;font-family:Andale Mono;-inkscape-font-specification:Andale Mono"
       d="m 224.75446,230.55292 -8.49609,0 0,17.44709 -3.18359,0 0,-17.44709 -8.53516,0 0,-1.8157 20.21484,0 0,1.8157" />
    <path
       inkscape:connector-curvature="0"
       id="path3142"
       style="font-size:33.44191742px;font-style:normal;font-variant:normal;font-weight:normal;font-stretch:normal;line-height:125%;letter-spacing:0px;word-spacing:0px;fill:#000000;fill-opacity:1;stroke:none;font-family:Andale Mono;-inkscape-font-specification:Andale Mono"
       d="m 246.00446,248.00001 -14.39453,0 0,-19.26279 14.27735,0 0,1.95221 -11.07422,0 0,5.96587 10.64453,0 0,1.95223 -10.64453,0 0,7.44026 11.1914,0 0,1.95222" />
    <path
       inkscape:connector-curvature="0"
       id="path3144"
       style="font-size:33.44191742px;font-style:normal;font-variant:normal;font-weight:normal;font-stretch:normal;line-height:125%;letter-spacing:0px;word-spacing:0px;fill:#000000;fill-opacity:1;stroke:none;font-family:Andale Mono;-inkscape-font-specification:Andale Mono"
       d="m 273.52399,248.00001 -4.0039,0 -8.08594,-8.75085 -3.55469,0 0,8.75085 -3.20312,0 0,-19.26279 7.79297,0 c 2.61717,2e-5 4.68097,0.44597 6.1914,1.33788 1.52342,0.88284 2.28514,2.11606 2.28516,3.69966 -2e-5,1.17407 -0.55341,2.22072 -1.66016,3.13993 -1.10679,0.91014 -2.63022,1.52902 -4.57031,1.85666 l 8.80859,9.22866 m -15.64453,-10.70306 4.04297,0 c 1.6927,0 3.06639,-0.31854 4.12109,-0.95564 1.05467,-0.64617 1.58202,-1.45619 1.58204,-2.43003 -2e-5,-2.14788 -1.87502,-3.22183 -5.62501,-3.22185 l -4.12109,0 0,6.60752" />
    <path
       inkscape:connector-curvature="0"
       id="path3229"
       style="font-size:21.05138779px;font-style:normal;font-variant:normal;font-weight:normal;font-stretch:normal;line-height:125%;letter-spacing:0px;word-spacing:0px;fill:#000000;fill-opacity:1;stroke:none;font-family:Andale Mono;-inkscape-font-specification:Andale Mono"
       d="m -22.265083,237.38492 c 0.349479,1e-5 0.644144,0.11993 0.883994,0.35976 0.239836,0.233 0.359757,0.52081 0.359765,0.86344 -8e-6,0.34264 -0.119929,0.63388 -0.359765,0.87371 -0.23985,0.233 -0.534515,0.3495 -0.883994,0.34949 -0.342639,1e-5 -0.633877,-0.11649 -0.873715,-0.34949 -0.232996,-0.23983 -0.349491,-0.53107 -0.349486,-0.87371 -5e-6,-0.34263 0.11649,-0.63044 0.349486,-0.86344 0.239838,-0.23983 0.531076,-0.35975 0.873715,-0.35976 m 0,8.59324 c 0.349479,0 0.644144,0.1165 0.883994,0.34948 0.239836,0.233 0.359757,0.52423 0.359765,0.87372 -8e-6,0.34263 -0.119929,0.63044 -0.359765,0.86343 -0.23985,0.233 -0.534515,0.34949 -0.883994,0.34949 -0.342639,0 -0.633877,-0.11649 -0.873715,-0.34949 -0.232996,-0.23299 -0.349491,-0.5208 -0.349486,-0.86343 -5e-6,-0.34949 0.11649,-0.64072 0.349486,-0.87372 0.239838,-0.23298 0.531076,-0.34948 0.873715,-0.34948" />
    <path
       inkscape:connector-curvature="0"
       id="path3231"
       style="font-size:21.05138779px;font-style:normal;font-variant:normal;font-weight:normal;font-stretch:normal;line-height:125%;letter-spacing:0px;word-spacing:0px;fill:#000000;fill-opacity:1;stroke:none;font-family:Andale Mono;-inkscape-font-specification:Andale Mono"
       d="m -11.140273,248.24982 -1.593245,0 c -0.130209,-0.43172 -0.19531,-1.00734 -0.195301,-1.72687 -0.911412,1.33627 -2.151743,2.0044 -3.720997,2.0044 -0.794913,0 -1.497311,-0.28096 -2.107194,-0.84288 -0.603037,-0.56877 -0.904554,-1.29858 -0.904552,-2.18942 -2e-6,-0.52766 0.106214,-0.99364 0.318649,-1.39795 0.21243,-0.4043 0.524226,-0.74351 0.935389,-1.01762 0.411156,-0.28095 0.9114,-0.50024 1.500733,-0.65785 0.589324,-0.16446 1.288295,-0.27753 2.096916,-0.33921 l 1.798824,-0.14391 0,-0.51395 c -8e-6,-1.8365 -0.856591,-2.75476 -2.569749,-2.75477 -0.404313,1e-5 -0.918263,0.0891 -1.54185,0.26725 -0.616744,0.17133 -1.147825,0.37691 -1.593244,0.61674 l -0.421439,-1.15124 c 1.459613,-0.74693 2.81644,-1.1204 4.070483,-1.12041 2.43954,1e-5 3.659313,1.29173 3.659323,3.87518 l 0,4.60499 c -10e-6,0.93196 0.08907,1.76114 0.267254,2.48752 m -1.870777,-3.17621 0,-1.94273 c -1.44592,0.1302 -2.439556,0.25355 -2.98091,0.37004 -0.534513,0.10965 -1.000494,0.31865 -1.397944,0.62702 -0.390606,0.30837 -0.585906,0.72638 -0.585903,1.25404 -3e-6,0.47969 0.167887,0.86686 0.503671,1.16152 0.335776,0.29467 0.764067,0.442 1.284875,0.442 0.568765,0 1.134109,-0.16789 1.696035,-0.50367 0.56191,-0.34263 1.055302,-0.81204 1.480175,-1.40822" />
    <path
       inkscape:connector-curvature="0"
       id="path3233"
       style="font-size:21.05138779px;font-style:normal;font-variant:normal;font-weight:normal;font-stretch:normal;line-height:125%;letter-spacing:0px;word-spacing:0px;fill:#000000;fill-opacity:1;stroke:none;font-family:Andale Mono;-inkscape-font-specification:Andale Mono"
       d="m -2.682128,233.91061 -0.421439,1.30544 c -0.760655,-0.21927 -1.442494,-0.32892 -2.04552,-0.32893 -0.575632,1e-5 -0.973086,0.16448 -1.192364,0.49339 -0.212439,0.32209 -0.318656,0.97652 -0.318649,1.96329 l 0,0.1953 3.597649,0 0,1.38767 -3.597649,0 0,9.32305 -1.603524,0 0,-9.32305 -2.693097,0 0,-1.38767 2.693097,0 0,-0.35976 c -5e-6,-1.36367 0.232986,-2.31962 0.698972,-2.86784 0.465975,-0.5482 1.271163,-0.82231 2.415565,-0.82232 0.740079,1e-5 1.562398,0.14049 2.466959,0.42143" />
    <path
       inkscape:connector-curvature="0"
       id="path3235"
       style="font-size:21.05138779px;font-style:normal;font-variant:normal;font-weight:normal;font-stretch:normal;line-height:125%;letter-spacing:0px;word-spacing:0px;fill:#000000;fill-opacity:1;stroke:none;font-family:Andale Mono;-inkscape-font-specification:Andale Mono"
       d="m 5.940482,247.7667 c -1.075878,0.4934 -2.134613,0.74009 -3.17621,0.74009 -1.911899,0 -2.867845,-1.01077 -2.86784,-3.0323 l 0,-6.54772 -2.0558,0 0,-1.38767 2.0558,0 0,-2.92951 1.562407,0 0,2.92951 3.638766,0 0,1.38767 -3.638766,0 0,6.12628 c -6e-6,0.651 0.1439,1.1581 0.431718,1.52129 0.287805,0.35634 0.678407,0.53451 1.171806,0.53451 0.877133,0 1.743994,-0.1953 2.600586,-0.5859 l 0.277533,1.24375" />
    <path
       inkscape:connector-curvature="0"
       id="path3237"
       style="font-size:21.05138779px;font-style:normal;font-variant:normal;font-weight:normal;font-stretch:normal;line-height:125%;letter-spacing:0px;word-spacing:0px;fill:#000000;fill-opacity:1;stroke:none;font-family:Andale Mono;-inkscape-font-specification:Andale Mono"
       d="m 14.77895,242.94585 -7.349484,0 c -3e-6,1.21293 0.349482,2.21342 1.048458,3.00147 0.705819,0.78806 1.569254,1.18209 2.590307,1.18209 0.973071,0 1.976985,-0.17475 3.011747,-0.52423 l 0.277533,1.28487 c -0.945678,0.42487 -2.048956,0.6373 -3.309838,0.6373 -1.589824,0 -2.871271,-0.51052 -3.844345,-1.53157 -0.973081,-1.02105 -1.459619,-2.39843 -1.459618,-4.13216 -1e-6,-1.69945 0.435142,-3.05285 1.305433,-4.0602 0.877137,-1.01419 2.007826,-1.52128 3.392069,-1.52129 1.233472,1e-5 2.264798,0.46941 3.093979,1.40822 0.829162,0.93882 1.243748,2.18943 1.243759,3.75183 l 0,0.50367 m -1.74743,-1.30543 c -9e-6,-0.83602 -0.26041,-1.53841 -0.781204,-2.10719 -0.52081,-0.57562 -1.103286,-0.86343 -1.74743,-0.86344 -0.829178,1e-5 -1.51787,0.27412 -2.066078,0.82232 -0.541365,0.54822 -0.842882,1.26432 -0.904552,2.14831 l 5.499264,0" />
    <path
       inkscape:connector-curvature="0"
       id="path3239"
       style="font-size:21.05138779px;font-style:normal;font-variant:normal;font-weight:normal;font-stretch:normal;line-height:125%;letter-spacing:0px;word-spacing:0px;fill:#000000;fill-opacity:1;stroke:none;font-family:Andale Mono;-inkscape-font-specification:Andale Mono"
       d="m 23.247373,237.82691 -0.647577,1.54185 c -0.705834,-0.30836 -1.315721,-0.46254 -1.829662,-0.46255 -0.472841,1e-5 -0.935396,0.13706 -1.387664,0.41116 -0.452283,0.26726 -0.870295,0.65444 -1.254038,1.16152 -0.376902,0.50026 -0.56535,0.78122 -0.565345,0.84288 l 0,6.92805 -1.593245,0 0,-10.71072 1.593245,0 0,2.16887 c 0.856577,-1.61722 1.966708,-2.42583 3.330395,-2.42584 0.808606,1e-5 1.593235,0.1816 2.353891,0.54478" />
    <text
       xml:space="preserve"
       style="font-size:31.51935387px;font-style:normal;font-variant:normal;font-weight:normal;font-stretch:normal;fill:#000000;fill-opacity:1;stroke:none;font-family:FreeSans;-inkscape-font-specification:FreeSans"
       x="78.058083"
       y="-252.84764"
       id="text2851-4-5-6"
       inkscape:export-filename="/home/nfroidure/Bureau/LocalServer/elitwork/insert/www/images/header.png"
       inkscape:export-xdpi="90"
       inkscape:export-ydpi="90"
       transform="matrix(-0.96592583,-0.25881905,0.25881905,-0.96592583,0,0)"><tspan
         sodipodi:role="line"
         x="78.058083"
         y="-252.84764"
         id="tspan2855-55-1-0">&gt;</tspan></text>
    <text
       xml:space="preserve"
       style="font-size:31.51935387px;font-style:normal;font-variant:normal;font-weight:normal;font-stretch:normal;fill:#000000;fill-opacity:1;stroke:none;font-family:FreeSans;-inkscape-font-specification:FreeSans"
       x="21.756191"
       y="253.38416"
       id="text2851-4-5-6-6"
       inkscape:export-filename="/home/nfroidure/Bureau/LocalServer/elitwork/insert/www/images/header.png"
       inkscape:export-xdpi="90"
       inkscape:export-ydpi="90"
       transform="matrix(0.96592583,0.25881905,-0.25881905,0.96592583,0,0)"><tspan
         sodipodi:role="line"
         x="21.756191"
         y="253.38416"
         id="tspan2855-55-1-0-3">&gt;</tspan></text>
    <path
       inkscape:connector-curvature="0"
       id="path3147-0"
       style="font-size:33.44191742px;font-style:normal;font-variant:normal;font-weight:normal;font-stretch:normal;line-height:125%;letter-spacing:0px;word-spacing:0px;fill:#000000;fill-opacity:1;stroke:none;font-family:Andale Mono;-inkscape-font-specification:Andale Mono"
       d="m -121.53272,313.22471 -12.51954,0 0,-1.95222 4.7461,0 0,-15.35836 -4.7461,0 0,-1.95221 12.51954,0 0,1.95221 -4.57032,0 0,15.35836 4.57032,0 0,1.95222" />
    <path
       inkscape:connector-curvature="0"
       id="path3149-5"
       style="font-size:33.44191742px;font-style:normal;font-variant:normal;font-weight:normal;font-stretch:normal;line-height:125%;letter-spacing:0px;word-spacing:0px;fill:#000000;fill-opacity:1;stroke:none;font-family:Andale Mono;-inkscape-font-specification:Andale Mono"
       d="m -101.36085,313.22471 -3.55468,0 -9.88282,-15.20818 0,15.20818 -3.20312,0 0,-19.26279 3.57422,0 9.92187,15.07167 0,-15.07167 3.14453,0 0,19.26279" />
    <path
       inkscape:connector-curvature="0"
       id="path3153-6"
       style="font-size:33.44191742px;font-style:normal;font-variant:normal;font-weight:normal;font-stretch:normal;line-height:125%;letter-spacing:0px;word-spacing:0px;fill:#000000;fill-opacity:1;stroke:none;font-family:Andale Mono;-inkscape-font-specification:Andale Mono"
       d="m -54.31006,313.22471 -14.394529,0 0,-19.26279 14.277339,0 0,1.95221 -11.07421,0 0,5.96587 10.64453,0 0,1.95223 -10.64453,0 0,7.44026 11.1914,0 0,1.95222" />
    <path
       inkscape:connector-curvature="0"
       id="path3155-5"
       style="font-size:33.44191742px;font-style:normal;font-variant:normal;font-weight:normal;font-stretch:normal;line-height:125%;letter-spacing:0px;word-spacing:0px;fill:#000000;fill-opacity:1;stroke:none;font-family:Andale Mono;-inkscape-font-specification:Andale Mono"
       d="m -32.79053,313.22471 -4.0039,0 -8.08594,-8.75085 -3.55469,0 0,8.75085 -3.20312,0 0,-19.26279 7.79297,0 c 2.61717,2e-5 4.68097,0.44597 6.1914,1.33788 1.52342,0.88284 2.28514,2.11606 2.28516,3.69966 -2e-5,1.17407 -0.55341,2.22072 -1.66016,3.13993 -1.10679,0.91014 -2.63022,1.52902 -4.57031,1.85666 l 8.80859,9.22866 m -15.64453,-10.70306 4.04297,0 c 1.6927,0 3.06639,-0.31854 4.12109,-0.95564 1.05468,-0.64617 1.58202,-1.45619 1.58204,-2.43003 -2e-5,-2.14788 -1.87502,-3.22183 -5.62501,-3.22185 l -4.12109,0 0,6.60752" />
    <path
       inkscape:connector-curvature="0"
       id="path3157-9"
       style="font-size:33.44191742px;font-style:normal;font-variant:normal;font-weight:normal;font-stretch:normal;line-height:125%;letter-spacing:0px;word-spacing:0px;fill:#000000;fill-opacity:1;stroke:none;font-family:Andale Mono;-inkscape-font-specification:Andale Mono"
       d="m -13.60694,295.77762 -8.49609,0 0,17.44709 -3.1836,0 0,-17.44709 -8.53515,0 0,-1.8157 20.21484,0 0,1.8157" />
    <text
       xml:space="preserve"
       style="font-size:33.22658157px;font-style:normal;font-variant:normal;font-weight:normal;font-stretch:normal;fill:#000000;fill-opacity:1;stroke:none;font-family:FreeSans;-inkscape-font-specification:FreeSans"
       x="-89.161499"
       y="312.44138"
       id="text2851-4-5"
       inkscape:export-filename="/home/nfroidure/Bureau/LocalServer/elitwork/insert/www/images/header.png"
       inkscape:export-xdpi="90"
       inkscape:export-ydpi="90"><tspan
         sodipodi:role="line"
         x="-89.161499"
         y="312.44138"
         id="tspan2855-55-1">&gt;</tspan></text>
    <text
       xml:space="preserve"
       style="font-size:30.39098549px;font-style:normal;font-variant:normal;font-weight:normal;font-stretch:normal;fill:#000000;fill-opacity:1;stroke:none;font-family:FreeSans;-inkscape-font-specification:FreeSans"
       x="83.052246"
       y="305.2247"
       id="text2851-4-5-7"
       inkscape:export-filename="/home/nfroidure/Bureau/LocalServer/elitwork/insert/www/images/header.png"
       inkscape:export-xdpi="90"
       inkscape:export-ydpi="90"
       transform="scale(-1,1)"><tspan
         sodipodi:role="line"
         x="83.052246"
         y="305.2247"
         id="tspan2855-55-1-8">&gt;</tspan></text>
    <path
       inkscape:connector-curvature="0"
       id="path3229-8"
       style="font-size:21.05138779px;font-style:normal;font-variant:normal;font-weight:normal;font-stretch:normal;line-height:125%;letter-spacing:0px;word-spacing:0px;fill:#000000;fill-opacity:1;stroke:none;font-family:Andale Mono;-inkscape-font-specification:Andale Mono"
       d="m -14.31734,302.60962 c 0.34948,10e-6 0.64414,0.11993 0.88399,0.35976 0.23984,0.233 0.35976,0.52081 0.35977,0.86344 -10e-6,0.34264 -0.11993,0.63388 -0.35977,0.87371 -0.23985,0.233 -0.53451,0.3495 -0.88399,0.34949 -0.34264,1e-5 -0.63388,-0.11649 -0.87372,-0.34949 -0.23299,-0.23983 -0.34949,-0.53107 -0.34948,-0.87371 -10e-6,-0.34263 0.11649,-0.63044 0.34948,-0.86344 0.23984,-0.23983 0.53108,-0.35975 0.87372,-0.35976 m 0,8.59324 c 0.34948,0 0.64414,0.1165 0.88399,0.34948 0.23984,0.233 0.35976,0.52423 0.35977,0.87372 -10e-6,0.34263 -0.11993,0.63044 -0.35977,0.86343 -0.23985,0.233 -0.53451,0.34949 -0.88399,0.34949 -0.34264,0 -0.63388,-0.11649 -0.87372,-0.34949 -0.23299,-0.23299 -0.34949,-0.5208 -0.34948,-0.86343 -10e-6,-0.34949 0.11649,-0.64072 0.34948,-0.87372 0.23984,-0.23298 0.53108,-0.34948 0.87372,-0.34948" />
    <path
       inkscape:connector-curvature="0"
       id="path3231-4"
       style="font-size:21.05138779px;font-style:normal;font-variant:normal;font-weight:normal;font-stretch:normal;line-height:125%;letter-spacing:0px;word-spacing:0px;fill:#000000;fill-opacity:1;stroke:none;font-family:Andale Mono;-inkscape-font-specification:Andale Mono"
       d="m -3.19253,313.47452 -1.59325,0 c -0.13021,-0.43172 -0.19531,-1.00734 -0.1953,-1.72687 -0.91141,1.33627 -2.15174,2.0044 -3.721,2.0044 -0.79491,0 -1.49731,-0.28096 -2.10719,-0.84288 -0.60304,-0.56877 -0.90455,-1.29858 -0.90455,-2.18942 0,-0.52766 0.10621,-0.99364 0.31865,-1.39795 0.21243,-0.4043 0.52422,-0.74351 0.93539,-1.01762 0.41115,-0.28095 0.9114,-0.50024 1.50073,-0.65785 0.58932,-0.16446 1.28829,-0.27753 2.09691,-0.33921 l 1.79883,-0.14391 0,-0.51395 c -10e-6,-1.8365 -0.85659,-2.75476 -2.56975,-2.75477 -0.40431,10e-6 -0.91826,0.0891 -1.54185,0.26725 -0.61674,0.17133 -1.14783,0.37691 -1.59324,0.61674 l -0.42144,-1.15124 c 1.45961,-0.74693 2.81644,-1.1204 4.07048,-1.12041 2.43954,1e-5 3.65931,1.29173 3.65932,3.87518 l 0,4.60499 c -1e-5,0.93196 0.0891,1.76114 0.26726,2.48752 m -1.87078,-3.17621 0,-1.94273 c -1.44592,0.1302 -2.43956,0.25355 -2.98091,0.37004 -0.53451,0.10965 -1.00049,0.31865 -1.39794,0.62702 -0.39061,0.30837 -0.58591,0.72638 -0.58591,1.25404 0,0.47969 0.16789,0.86686 0.50367,1.16152 0.33578,0.29467 0.76407,0.442 1.28488,0.442 0.56876,0 1.13411,-0.16789 1.69603,-0.50367 0.56191,-0.34263 1.05531,-0.81204 1.48018,-1.40822" />
    <path
       inkscape:connector-curvature="0"
       id="path3233-7"
       style="font-size:21.05138779px;font-style:normal;font-variant:normal;font-weight:normal;font-stretch:normal;line-height:125%;letter-spacing:0px;word-spacing:0px;fill:#000000;fill-opacity:1;stroke:none;font-family:Andale Mono;-inkscape-font-specification:Andale Mono"
       d="m 5.26561,299.13531 -0.42144,1.30544 c -0.76065,-0.21927 -1.44249,-0.32892 -2.04552,-0.32893 -0.57563,10e-6 -0.97308,0.16448 -1.19236,0.49339 -0.21244,0.32209 -0.31866,0.97652 -0.31865,1.96329 l 0,0.1953 3.59765,0 0,1.38767 -3.59765,0 0,9.32305 -1.60351996,0 0,-9.32305 -2.69310004,0 0,-1.38767 2.69310004,0 0,-0.35976 c -1e-5,-1.36367 0.23298,-2.31962 0.69897,-2.86784 0.46597,-0.5482 1.27115996,-0.82231 2.41555996,-0.82232 0.74008,10e-6 1.5624,0.14049 2.46696,0.42143" />
    <path
       inkscape:connector-curvature="0"
       id="path3235-7"
       style="font-size:21.05138779px;font-style:normal;font-variant:normal;font-weight:normal;font-stretch:normal;line-height:125%;letter-spacing:0px;word-spacing:0px;fill:#000000;fill-opacity:1;stroke:none;font-family:Andale Mono;-inkscape-font-specification:Andale Mono"
       d="m 13.88822,312.9914 c -1.07588,0.4934 -2.13461,0.74009 -3.17621,0.74009 -1.9119,0 -2.86784,-1.01077 -2.86784,-3.0323 l 0,-6.54772 -2.0558,0 0,-1.38767 2.0558,0 0,-2.92951 1.56241,0 0,2.92951 3.63876,0 0,1.38767 -3.63876,0 0,6.12628 c -10e-6,0.651 0.1439,1.1581 0.43172,1.52129 0.2878,0.35634 0.6784,0.53451 1.1718,0.53451 0.87714,0 1.744,-0.1953 2.60059,-0.5859 l 0.27753,1.24375" />
    <path
       inkscape:connector-curvature="0"
       id="path3237-4"
       style="font-size:21.05138779px;font-style:normal;font-variant:normal;font-weight:normal;font-stretch:normal;line-height:125%;letter-spacing:0px;word-spacing:0px;fill:#000000;fill-opacity:1;stroke:none;font-family:Andale Mono;-inkscape-font-specification:Andale Mono"
       d="m 22.72669,308.17055 -7.34948,0 c -10e-6,1.21293 0.34948,2.21342 1.04845,3.00147 0.70582,0.78806 1.56926,1.18209 2.59031,1.18209 0.97307,0 1.97699,-0.17475 3.01175,-0.52423 l 0.27753,1.28487 c -0.94568,0.42487 -2.04896,0.6373 -3.30984,0.6373 -1.58982,0 -2.87127,-0.51052 -3.84434,-1.53157 -0.97308,-1.02105 -1.45962,-2.39843 -1.45962,-4.13216 0,-1.69945 0.43514,-3.05285 1.30543,-4.0602 0.87714,-1.01419 2.00783,-1.52128 3.39207,-1.52129 1.23347,1e-5 2.2648,0.46941 3.09398,1.40822 0.82916,0.93882 1.24375,2.18943 1.24376,3.75183 l 0,0.50367 m -1.74743,-1.30543 c -10e-6,-0.83602 -0.26041,-1.53841 -0.7812,-2.10719 -0.52081,-0.57562 -1.10329,-0.86343 -1.74743,-0.86344 -0.82918,10e-6 -1.51787,0.27412 -2.06608,0.82232 -0.54137,0.54822 -0.84288,1.26432 -0.90455,2.14831 l 5.49926,0" />
    <path
       inkscape:connector-curvature="0"
       id="path3239-1"
       style="font-size:21.05138779px;font-style:normal;font-variant:normal;font-weight:normal;font-stretch:normal;line-height:125%;letter-spacing:0px;word-spacing:0px;fill:#000000;fill-opacity:1;stroke:none;font-family:Andale Mono;-inkscape-font-specification:Andale Mono"
       d="m 31.19511,303.05161 -0.64757,1.54185 c -0.70584,-0.30836 -1.31573,-0.46254 -1.82967,-0.46255 -0.47284,1e-5 -0.93539,0.13706 -1.38766,0.41116 -0.45228,0.26726 -0.87029,0.65444 -1.25404,1.16152 -0.3769,0.50026 -0.56535,0.78122 -0.56534,0.84288 l 0,6.92805 -1.59325,0 0,-10.71072 1.59325,0 0,2.16887 c 0.85657,-1.61722 1.9667,-2.42583 3.33039,-2.42584 0.80861,1e-5 1.59324,0.1816 2.35389,0.54478" />
    <path
       inkscape:connector-curvature="0"
       id="path3147-6"
       style="font-size:33.44191742px;font-style:normal;font-variant:normal;font-weight:normal;font-stretch:normal;line-height:125%;letter-spacing:0px;word-spacing:0px;fill:#000000;fill-opacity:1;stroke:none;font-family:Andale Mono;-inkscape-font-specification:Andale Mono"
       d="m -119.53272,521.29613 -12.51954,0 0,-1.95222 4.7461,0 0,-15.35836 -4.7461,0 0,-1.95221 12.51954,0 0,1.95221 -4.57032,0 0,15.35836 4.57032,0 0,1.95222" />
    <path
       inkscape:connector-curvature="0"
       id="path3149-7"
       style="font-size:33.44191742px;font-style:normal;font-variant:normal;font-weight:normal;font-stretch:normal;line-height:125%;letter-spacing:0px;word-spacing:0px;fill:#000000;fill-opacity:1;stroke:none;font-family:Andale Mono;-inkscape-font-specification:Andale Mono"
       d="m -99.360849,521.29613 -3.554681,0 -9.88282,-11.20818 0,11.20818 -3.20312,0 0,-15.26279 3.57422,0 9.92187,11.07167 0,-11.07167 3.144531,0 0,15.26279"
       sodipodi:nodetypes="ccccccccccc" />
    <path
       inkscape:connector-curvature="0"
       id="path3153-2"
       style="font-size:33.44191742px;font-style:normal;font-variant:normal;font-weight:normal;font-stretch:normal;line-height:125%;letter-spacing:0px;word-spacing:0px;fill:#000000;fill-opacity:1;stroke:none;font-family:Andale Mono;-inkscape-font-specification:Andale Mono"
       d="m -56.31006,521.29613 -14.394529,0 0,-15.26279 14.277339,0 0,1.95221 -11.074209,0 0,3.96587 10.644529,0 0,1.95223 -10.644529,0 0,5.44026 11.191399,0 0,1.95222"
       sodipodi:nodetypes="ccccccccccccc" />
    <path
       inkscape:connector-curvature="0"
       id="path3155-2"
       style="font-size:33.44191742px;font-style:normal;font-variant:normal;font-weight:normal;font-stretch:normal;line-height:125%;letter-spacing:0px;word-spacing:0px;fill:#000000;fill-opacity:1;stroke:none;font-family:Andale Mono;-inkscape-font-specification:Andale Mono"
       d="m -34.79053,521.29613 -4.0039,0 -8.08594,-4.75085 -3.55469,0 0,4.75085 -3.20312,0 0,-15.26279 7.79297,0 c 2.61717,0 4.68097,0.44597 6.1914,1.33788 1.52342,0.88284 2.28514,2.11606 2.28516,3.69966 -2e-5,1.17407 -0.55341,2.22072 -1.66016,3.13993 -1.10679,0.91014 -2.63022,1.52902 -4.57031,1.85666 l 8.80859,5.22866 m -15.64453,-6.70306 4.04297,0 c 1.6927,0 3.06639,-0.31854 4.12109,-0.95564 1.05468,-0.64617 1.58202,-1.45619 1.58204,-2.43003 -2e-5,-2.14788 -1.87502,-3.22185 -5.62501,-3.22185 l -4.12109,0 0,6.60752"
       sodipodi:nodetypes="cccccccsccccccsccscc" />
    <path
       inkscape:connector-curvature="0"
       id="path3157-0"
       style="font-size:33.44191742px;font-style:normal;font-variant:normal;font-weight:normal;font-stretch:normal;line-height:125%;letter-spacing:0px;word-spacing:0px;fill:#000000;fill-opacity:1;stroke:none;font-family:Andale Mono;-inkscape-font-specification:Andale Mono"
       d="m -15.60694,503.84904 -8.49609,0 0,17.44709 -3.1836,0 0,-17.44709 -8.53515,0 0,-1.8157 20.21484,0 0,1.8157" />
    <text
       xml:space="preserve"
       style="font-size:33.22658157px;font-style:normal;font-variant:normal;font-weight:normal;font-stretch:normal;fill:#000000;fill-opacity:1;stroke:none;font-family:FreeSans;-inkscape-font-specification:FreeSans"
       x="-91.052246"
       y="521.29614"
       id="text2851-4-5-9"
       inkscape:export-filename="/home/nfroidure/Bureau/LocalServer/elitwork/insert/www/images/header.png"
       inkscape:export-xdpi="90"
       inkscape:export-ydpi="90"><tspan
         sodipodi:role="line"
         x="-91.052246"
         y="521.29614"
         id="tspan2855-55-1-7">&gt;</tspan></text>
    <text
       xml:space="preserve"
       style="font-size:30.39098549px;font-style:normal;font-variant:normal;font-weight:normal;font-stretch:normal;fill:#000000;fill-opacity:1;stroke:none;font-family:FreeSans;-inkscape-font-specification:FreeSans"
       x="81.052246"
       y="514.29614"
       id="text2851-4-5-7-9"
       inkscape:export-filename="/home/nfroidure/Bureau/LocalServer/elitwork/insert/www/images/header.png"
       inkscape:export-xdpi="90"
       inkscape:export-ydpi="90"
       transform="scale(-1,1)"><tspan
         sodipodi:role="line"
         x="81.052246"
         y="514.29614"
         id="tspan2855-55-1-8-0">&gt;</tspan></text>
    <path
       inkscape:connector-curvature="0"
       id="path3229-2"
       style="font-size:21.05138779px;font-style:normal;font-variant:normal;font-weight:normal;font-stretch:normal;line-height:125%;letter-spacing:0px;word-spacing:0px;fill:#000000;fill-opacity:1;stroke:none;font-family:Andale Mono;-inkscape-font-specification:Andale Mono"
       d="m -16.31734,510.68104 c 0.34948,1e-5 0.64414,0.11993 0.88399,0.35976 0.23984,0.233 0.35976,0.52081 0.35977,0.86344 -10e-6,0.34264 -0.11993,0.63388 -0.35977,0.87371 -0.23985,0.233 -0.53451,0.3495 -0.88399,0.34949 -0.34264,10e-6 -0.63388,-0.11649 -0.87372,-0.34949 -0.23299,-0.23983 -0.34949,-0.53107 -0.34948,-0.87371 -10e-6,-0.34263 0.11649,-0.63044 0.34948,-0.86344 0.23984,-0.23983 0.53108,-0.35975 0.87372,-0.35976 m 0,8.59324 c 0.34948,0 0.64414,0.1165 0.88399,0.34948 0.23984,0.233 0.35976,0.52423 0.35977,0.87372 -10e-6,0.34263 -0.11993,0.63044 -0.35977,0.86343 -0.23985,0.233 -0.53451,0.34949 -0.88399,0.34949 -0.34264,0 -0.63388,-0.11649 -0.87372,-0.34949 -0.23299,-0.23299 -0.34949,-0.5208 -0.34948,-0.86343 -10e-6,-0.34949 0.11649,-0.64072 0.34948,-0.87372 0.23984,-0.23298 0.53108,-0.34948 0.87372,-0.34948" />
    <path
       inkscape:connector-curvature="0"
       id="path3231-3"
       style="font-size:21.05138779px;font-style:normal;font-variant:normal;font-weight:normal;font-stretch:normal;line-height:125%;letter-spacing:0px;word-spacing:0px;fill:#000000;fill-opacity:1;stroke:none;font-family:Andale Mono;-inkscape-font-specification:Andale Mono"
       d="m -5.19253,521.54594 -1.59325,0 c -0.13021,-0.43172 -0.19531,-1.00734 -0.1953,-1.72687 -0.91141,1.33627 -2.15174,2.0044 -3.721,2.0044 -0.79491,0 -1.49731,-0.28096 -2.10719,-0.84288 -0.60304,-0.56877 -0.90455,-1.29858 -0.90455,-2.18942 0,-0.52766 0.10621,-0.99364 0.31865,-1.39795 0.21243,-0.4043 0.52422,-0.74351 0.93539,-1.01762 0.41115,-0.28095 0.9114,-0.50024 1.50073,-0.65785 0.58932,-0.16446 1.28829,-0.27753 2.09691,-0.33921 l 1.79883,-0.14391 0,-0.51395 c -10e-6,-1.8365 -0.85659,-2.75476 -2.56975,-2.75477 -0.40431,10e-6 -0.91826,0.0891 -1.54185,0.26725 -0.61674,0.17133 -1.14783,0.37691 -1.59324,0.61674 l -0.42144,-1.15124 c 1.45961,-0.74693 2.81644,-1.1204 4.07048,-1.12041 2.43954,10e-6 3.65931,1.29173 3.65932,3.87518 l 0,4.60499 c -1e-5,0.93196 0.0891,1.76114 0.26726,2.48752 m -1.87078,-3.17621 0,-1.94273 c -1.44592,0.1302 -2.43956,0.25355 -2.98091,0.37004 -0.53451,0.10965 -1.00049,0.31865 -1.39794,0.62702 -0.39061,0.30837 -0.58591,0.72638 -0.58591,1.25404 0,0.47969 0.16789,0.86686 0.50367,1.16152 0.33578,0.29467 0.76407,0.442 1.28488,0.442 0.56876,0 1.13411,-0.16789 1.69603,-0.50367 0.56191,-0.34263 1.05531,-0.81204 1.48018,-1.40822" />
    <path
       inkscape:connector-curvature="0"
       id="path3233-4"
       style="font-size:21.05138779px;font-style:normal;font-variant:normal;font-weight:normal;font-stretch:normal;line-height:125%;letter-spacing:0px;word-spacing:0px;fill:#000000;fill-opacity:1;stroke:none;font-family:Andale Mono;-inkscape-font-specification:Andale Mono"
       d="m 3.26561,507.20673 -0.42144,1.30544 c -0.76065,-0.21927 -1.44249,-0.32892 -2.04551996,-0.32893 -0.57563,10e-6 -0.97308,0.16448 -1.19236,0.49339 -0.21244,0.32209 -0.31866,0.97652 -0.31865,1.96329 l 0,0.1953 3.59764996,0 0,1.38767 -3.59764996,0 0,9.32305 -1.60352004,0 0,-9.32305 -2.6931,0 0,-1.38767 2.6931,0 0,-0.35976 c -1e-5,-1.36367 0.23298,-2.31962 0.69897,-2.86784 0.46597,-0.5482 1.27116004,-0.82231 2.41556004,-0.82232 0.74007996,10e-6 1.56239996,0.14049 2.46695996,0.42143" />
    <path
       inkscape:connector-curvature="0"
       id="path3235-1"
       style="font-size:21.05138779px;font-style:normal;font-variant:normal;font-weight:normal;font-stretch:normal;line-height:125%;letter-spacing:0px;word-spacing:0px;fill:#000000;fill-opacity:1;stroke:none;font-family:Andale Mono;-inkscape-font-specification:Andale Mono"
       d="m 11.88822,521.06282 c -1.07588,0.4934 -2.13461,0.74009 -3.17621,0.74009 -1.9119,0 -2.86784,-1.01077 -2.86784,-3.0323 l 0,-6.54772 -2.0558,0 0,-1.38767 2.0558,0 0,-2.92951 1.56241,0 0,2.92951 3.63876,0 0,1.38767 -3.63876,0 0,6.12628 c -10e-6,0.651 0.1439,1.1581 0.43172,1.52129 0.2878,0.35634 0.6784,0.53451 1.1718,0.53451 0.87714,0 1.744,-0.1953 2.60059,-0.5859 l 0.27753,1.24375" />
    <path
       inkscape:connector-curvature="0"
       id="path3237-1"
       style="font-size:21.05138779px;font-style:normal;font-variant:normal;font-weight:normal;font-stretch:normal;line-height:125%;letter-spacing:0px;word-spacing:0px;fill:#000000;fill-opacity:1;stroke:none;font-family:Andale Mono;-inkscape-font-specification:Andale Mono"
       d="m 20.72669,516.24197 -7.34948,0 c -10e-6,1.21293 0.34948,2.21342 1.04845,3.00147 0.70582,0.78806 1.56926,1.18209 2.59031,1.18209 0.97307,0 1.97699,-0.17475 3.01175,-0.52423 l 0.27753,1.28487 c -0.94568,0.42487 -2.04896,0.6373 -3.30984,0.6373 -1.58982,0 -2.87127,-0.51052 -3.84434,-1.53157 -0.97308,-1.02105 -1.45962,-2.39843 -1.45962,-4.13216 0,-1.69945 0.43514,-3.05285 1.30543,-4.0602 0.87714,-1.01419 2.00783,-1.52128 3.39207,-1.52129 1.23347,10e-6 2.2648,0.46941 3.09398,1.40822 0.82916,0.93882 1.24375,2.18943 1.24376,3.75183 l 0,0.50367 m -1.74743,-1.30543 c -10e-6,-0.83602 -0.26041,-1.53841 -0.7812,-2.10719 -0.52081,-0.57562 -1.10329,-0.86343 -1.74743,-0.86344 -0.82918,10e-6 -1.51787,0.27412 -2.06608,0.82232 -0.54137,0.54822 -0.84288,1.26432 -0.90455,2.14831 l 5.49926,0" />
    <path
       inkscape:connector-curvature="0"
       id="path3239-4"
       style="font-size:21.05138779px;font-style:normal;font-variant:normal;font-weight:normal;font-stretch:normal;line-height:125%;letter-spacing:0px;word-spacing:0px;fill:#000000;fill-opacity:1;stroke:none;font-family:Andale Mono;-inkscape-font-specification:Andale Mono"
       d="m 29.19511,511.12303 -0.64757,1.54185 c -0.70584,-0.30836 -1.31573,-0.46254 -1.82967,-0.46255 -0.47284,1e-5 -0.93539,0.13706 -1.38766,0.41116 -0.45228,0.26726 -0.87029,0.65444 -1.25404,1.16152 -0.3769,0.50026 -0.56535,0.78122 -0.56534,0.84288 l 0,6.92805 -1.59325,0 0,-10.71072 1.59325,0 0,2.16887 c 0.85657,-1.61722 1.9667,-2.42583 3.33039,-2.42584 0.80861,10e-6 1.59324,0.1816 2.35389,0.54478" />
    <path
       d="m -132.05226,503.98555 0,-1.95221 36.519541,0 0,1.95221"
       style="font-size:33.44191742px;font-style:normal;font-variant:normal;font-weight:normal;font-stretch:normal;line-height:125%;letter-spacing:0px;word-spacing:0px;fill:#000000;fill-opacity:1;stroke:none;font-family:Andale Mono;-inkscape-font-specification:Andale Mono"
       id="path4047"
       inkscape:connector-curvature="0"
       sodipodi:nodetypes="cccc" />
    <path
       sodipodi:nodetypes="cccc"
       inkscape:connector-curvature="0"
       id="path4049"
       style="font-size:33.44191742px;font-style:normal;font-variant:normal;font-weight:normal;font-stretch:normal;line-height:125%;letter-spacing:0px;word-spacing:0px;fill:#000000;fill-opacity:1;stroke:none;font-family:Andale Mono;-inkscape-font-specification:Andale Mono"
       d="m -82.052259,503.98555 0,-1.95221 66.519539,0 0,1.95221" />
    <path
       inkscape:connector-curvature="0"
       id="path3147-5"
       style="font-size:33.44191742px;font-style:normal;font-variant:normal;font-weight:normal;font-stretch:normal;line-height:125%;letter-spacing:0px;word-spacing:0px;fill:#000000;fill-opacity:1;stroke:none;font-family:Andale Mono;-inkscape-font-specification:Andale Mono"
       d="m -136.83138,400.22339 -12.51954,0 0,-2.02693 4.7461,0 0,-15.94615 -4.7461,0 0,-2.02692 12.51954,0 0,2.02692 -4.57032,0 0,15.94615 4.57032,0 0,2.02693" />
    <path
       inkscape:connector-curvature="0"
       id="path3149-4"
       style="font-size:33.44191742px;font-style:normal;font-variant:normal;font-weight:normal;font-stretch:normal;line-height:125%;letter-spacing:0px;word-spacing:0px;fill:#000000;fill-opacity:1;stroke:none;font-family:Andale Mono;-inkscape-font-specification:Andale Mono"
       d="m -118.1306,400.22339 -3.55468,0 -9.88282,-15.79022 0,15.79022 -3.20312,0 0,-20 3.57422,0 9.92187,15.64848 0,-15.64848 3.14453,0 0,20" />
    <path
       inkscape:connector-curvature="0"
       id="path3151-2"
       style="font-size:33.44191742px;font-style:normal;font-variant:normal;font-weight:normal;font-stretch:normal;line-height:125%;letter-spacing:0px;word-spacing:0px;fill:#000000;fill-opacity:1;stroke:none;font-family:Andale Mono;-inkscape-font-specification:Andale Mono"
       d="m -102.63295,382.72168 c -1.64065,-0.39134 -3.19663,-0.58701 -4.66797,-0.58703 -1.66668,2e-5 -3.02735,0.2685 -4.08203,0.80546 -1.04167,0.52788 -1.56251,1.28329 -1.5625,2.26621 -1e-5,1.16498 1.37369,2.18887 4.12109,3.07168 2.03124,0.65529 3.37239,1.11036 4.02344,1.36518 0.66404,0.25484 1.33462,0.60525 2.01172,1.0512 0.67706,0.44597 1.21743,0.97384 1.62109,1.58361 0.41665,0.60069 0.62498,1.27874 0.625,2.03413 -2e-5,1.87486 -0.90497,3.33107 -2.71484,4.3686 -1.79689,1.02844 -3.91928,1.54266 -6.36719,1.54267 -2.36979,-10e-6 -4.44662,-0.32765 -6.23046,-0.98294 l 0.66406,-1.92491 c 2.09635,0.66439 3.92577,0.99659 5.48828,0.99659 1.8229,0 3.28123,-0.32765 4.37499,-0.98295 1.10676,-0.66438 1.66014,-1.57451 1.66016,-2.73037 -2e-5,-0.85551 -0.35809,-1.57906 -1.07422,-2.17065 -0.71616,-0.60067 -2.03777,-1.21045 -3.96484,-1.82935 -1.97918,-0.63707 -3.26172,-1.06938 -3.84765,-1.29692 -0.57293,-0.23663 -1.14584,-0.55972 -1.71875,-0.96929 -0.57292,-0.40954 -1.01563,-0.86916 -1.32813,-1.37884 -0.3125,-0.50965 -0.46875,-1.06483 -0.46875,-1.66553 0,-1.5927 0.82031,-2.83502 2.46094,-3.72696 1.64062,-0.8919 3.71743,-1.33787 6.23047,-1.33788 1.83592,1e-5 3.65883,0.19569 5.46874,0.58703 l -0.72265,1.91126" />
    <path
       inkscape:connector-curvature="0"
       id="path3153-5"
       style="font-size:33.44191742px;font-style:normal;font-variant:normal;font-weight:normal;font-stretch:normal;line-height:125%;letter-spacing:0px;word-spacing:0px;fill:#000000;fill-opacity:1;stroke:none;font-family:Andale Mono;-inkscape-font-specification:Andale Mono"
       d="m -84.088419,400.22339 -14.39453,0 0,-20 14.27734,0 0,2.02692 -11.07422,0 0,6.19419 10.64454,0 0,2.02695 -10.64454,0 0,7.72501 11.19141,0 0,2.02693" />
    <path
       inkscape:connector-curvature="0"
       id="path3155-0"
       style="font-size:33.44191742px;font-style:normal;font-variant:normal;font-weight:normal;font-stretch:normal;line-height:125%;letter-spacing:0px;word-spacing:0px;fill:#000000;fill-opacity:1;stroke:none;font-family:Andale Mono;-inkscape-font-specification:Andale Mono"
       d="m -63.18061,400.22339 -4.003899,0 -8.08594,-9.08576 -3.55469,0 0,9.08576 -3.20312,0 0,-20 7.79297,0 c 2.61717,2e-5 4.68097,0.46304 6.1914,1.38908 1.52342,0.91663 2.285139,2.19705 2.285159,3.84125 -2e-5,1.21901 -0.55341,2.30571 -1.660159,3.2601 -1.10678,0.94497 -2.63022,1.58754 -4.57031,1.92772 l 8.808589,9.58185 m -15.644529,-11.11268 4.04297,0 c 1.6927,0 3.06639,-0.33073 4.1211,-0.99221 1.05467,-0.6709 1.58201,-1.51192 1.58203,-2.52303 -2e-5,-2.23008 -1.87502,-3.34514 -5.625,-3.34516 l -4.1211,0 0,6.8604" />
    <path
       inkscape:connector-curvature="0"
       id="path3157-4"
       style="font-size:33.44191742px;font-style:normal;font-variant:normal;font-weight:normal;font-stretch:normal;line-height:125%;letter-spacing:0px;word-spacing:0px;fill:#000000;fill-opacity:1;stroke:none;font-family:Andale Mono;-inkscape-font-specification:Andale Mono"
       d="m -42.90561,382.10858 -8.49609,0 0,18.11481 -3.1836,0 0,-18.11481 -8.53515,0 0,-1.88519 20.21484,0 0,1.88519" />
    <path
       inkscape:connector-curvature="0"
       id="path3229-7"
       style="font-size:21.05138779px;font-style:normal;font-variant:normal;font-weight:normal;font-stretch:normal;line-height:125%;letter-spacing:0px;word-spacing:0px;fill:#000000;fill-opacity:1;stroke:none;font-family:Andale Mono;-inkscape-font-specification:Andale Mono"
       d="m -27.61601,389.6083 c 0.34948,1e-5 0.64414,0.11993 0.88399,0.35976 0.23984,0.233 0.35976,0.52081 0.35977,0.86344 -10e-6,0.34264 -0.11993,0.63388 -0.35977,0.87371 -0.23985,0.233 -0.53451,0.3495 -0.88399,0.34949 -0.34264,10e-6 -0.63388,-0.11649 -0.87371,-0.34949 -0.233,-0.23983 -0.3495,-0.53107 -0.34949,-0.87371 -10e-6,-0.34263 0.11649,-0.63044 0.34949,-0.86344 0.23983,-0.23983 0.53107,-0.35975 0.87371,-0.35976 m 0,8.59324 c 0.34948,0 0.64414,0.1165 0.88399,0.34948 0.23984,0.233 0.35976,0.52423 0.35977,0.87372 -10e-6,0.34263 -0.11993,0.63044 -0.35977,0.86343 -0.23985,0.233 -0.53451,0.34949 -0.88399,0.34949 -0.34264,0 -0.63388,-0.11649 -0.87371,-0.34949 -0.233,-0.23299 -0.3495,-0.5208 -0.34949,-0.86343 -10e-6,-0.34949 0.11649,-0.64072 0.34949,-0.87372 0.23983,-0.23298 0.53107,-0.34948 0.87371,-0.34948" />
    <path
       inkscape:connector-curvature="0"
       id="path3231-9"
       style="font-size:21.05138779px;font-style:normal;font-variant:normal;font-weight:normal;font-stretch:normal;line-height:125%;letter-spacing:0px;word-spacing:0px;fill:#000000;fill-opacity:1;stroke:none;font-family:Andale Mono;-inkscape-font-specification:Andale Mono"
       d="m -16.4912,400.4732 -1.59324,0 c -0.13021,-0.43172 -0.19531,-1.00734 -0.19531,-1.72687 -0.91141,1.33627 -2.15174,2.0044 -3.72099,2.0044 -0.79492,0 -1.49731,-0.28096 -2.1072,-0.84288 -0.60303,-0.56877 -0.90455,-1.29858 -0.90455,-2.18942 0,-0.52766 0.10622,-0.99364 0.31865,-1.39795 0.21243,-0.4043 0.52423,-0.74351 0.93539,-1.01762 0.41116,-0.28095 0.9114,-0.50024 1.50073,-0.65785 0.58933,-0.16446 1.2883,-0.27753 2.09692,-0.33921 l 1.79882,-0.14391 0,-0.51395 c -10e-6,-1.8365 -0.85659,-2.75476 -2.56975,-2.75477 -0.40431,10e-6 -0.91826,0.0891 -1.54185,0.26725 -0.61674,0.17133 -1.14782,0.37691 -1.59324,0.61674 l -0.42144,-1.15124 c 1.45961,-0.74693 2.81644,-1.1204 4.07048,-1.12041 2.43954,10e-6 3.65932,1.29173 3.65933,3.87518 l 0,4.60499 c -10e-6,0.93196 0.0891,1.76114 0.26725,2.48752 m -1.87078,-3.17621 0,-1.94273 c -1.44592,0.1302 -2.43955,0.25355 -2.98091,0.37004 -0.53451,0.10965 -1.00049,0.31865 -1.39794,0.62702 -0.39061,0.30837 -0.58591,0.72638 -0.5859,1.25404 -10e-6,0.47969 0.16788,0.86686 0.50367,1.16152 0.33577,0.29467 0.76406,0.442 1.28487,0.442 0.56877,0 1.13411,-0.16789 1.69604,-0.50367 0.56191,-0.34263 1.0553,-0.81204 1.48017,-1.40822" />
    <path
       inkscape:connector-curvature="0"
       id="path3233-8"
       style="font-size:21.05138779px;font-style:normal;font-variant:normal;font-weight:normal;font-stretch:normal;line-height:125%;letter-spacing:0px;word-spacing:0px;fill:#000000;fill-opacity:1;stroke:none;font-family:Andale Mono;-inkscape-font-specification:Andale Mono"
       d="m -8.03305,386.13399 -0.42144,1.30544 c -0.76066,-0.21927 -1.4425,-0.32892 -2.04552,-0.32893 -0.57564,10e-6 -0.97309,0.16448 -1.19237,0.49339 -0.21244,0.32209 -0.31865,0.97652 -0.31865,1.96329 l 0,0.1953 3.59765,0 0,1.38767 -3.59765,0 0,9.32305 -1.60352,0 0,-9.32305 -2.6931,0 0,-1.38767 2.6931,0 0,-0.35976 c -1e-5,-1.36367 0.23299,-2.31962 0.69897,-2.86784 0.46598,-0.5482 1.27116,-0.82231 2.41557,-0.82232 0.74008,1e-5 1.56239,0.14049 2.46696,0.42143" />
    <path
       inkscape:connector-curvature="0"
       id="path3235-6"
       style="font-size:21.05138779px;font-style:normal;font-variant:normal;font-weight:normal;font-stretch:normal;line-height:125%;letter-spacing:0px;word-spacing:0px;fill:#000000;fill-opacity:1;stroke:none;font-family:Andale Mono;-inkscape-font-specification:Andale Mono"
       d="m 0.58956004,399.99008 c -1.07588,0.4934 -2.13462004,0.74009 -3.17621004,0.74009 -1.9119,0 -2.86785,-1.01077 -2.86784,-3.0323 l 0,-6.54772 -2.0558,0 0,-1.38767 2.0558,0 0,-2.92951 1.5624,0 0,2.92951 3.63877004,0 0,1.38767 -3.63877004,0 0,6.12628 c 0,0.651 0.1439,1.1581 0.43172,1.52129 0.28781,0.35634 0.67841,0.53451 1.17181,0.53451 0.87713,0 1.74399004,-0.1953 2.60058004,-0.5859 l 0.27754,1.24375" />
    <path
       inkscape:connector-curvature="0"
       id="path3237-9"
       style="font-size:21.05138779px;font-style:normal;font-variant:normal;font-weight:normal;font-stretch:normal;line-height:125%;letter-spacing:0px;word-spacing:0px;fill:#000000;fill-opacity:1;stroke:none;font-family:Andale Mono;-inkscape-font-specification:Andale Mono"
       d="m 9.42802,395.16923 -7.34948,0 c 0,1.21293 0.34948,2.21342 1.04846,3.00147 0.70582,0.78806 1.56925,1.18209 2.5903,1.18209 0.97308,0 1.97699,-0.17475 3.01175,-0.52423 l 0.27753,1.28487 c -0.94567,0.42487 -2.04895,0.6373 -3.30983,0.6373 -1.58983,0 -2.87127,-0.51052 -3.84435,-1.53157 -0.97307996,-1.02105 -1.45961996,-2.39843 -1.45961996,-4.13216 0,-1.69945 0.43515,-3.05285 1.30543996,-4.0602 0.87713,-1.01419 2.00782,-1.52128 3.39207,-1.52129 1.23347,10e-6 2.26479,0.46941 3.09397,1.40822 0.82917,0.93882 1.24375,2.18943 1.24376,3.75183 l 0,0.50367 M 7.68059,393.8638 c -10e-6,-0.83602 -0.26041,-1.53841 -0.7812,-2.10719 -0.52081,-0.57562 -1.10329,-0.86343 -1.74743,-0.86344 -0.82918,10e-6 -1.51787,0.27412 -2.06608,0.82232 -0.54136,0.54822 -0.84288,1.26432 -0.90455,2.14831 l 5.49926,0" />
    <path
       inkscape:connector-curvature="0"
       id="path3239-8"
       style="font-size:21.05138779px;font-style:normal;font-variant:normal;font-weight:normal;font-stretch:normal;line-height:125%;letter-spacing:0px;word-spacing:0px;fill:#000000;fill-opacity:1;stroke:none;font-family:Andale Mono;-inkscape-font-specification:Andale Mono"
       d="m 17.89645,390.05029 -0.64758,1.54185 c -0.70583,-0.30836 -1.31572,-0.46254 -1.82966,-0.46255 -0.47284,10e-6 -0.9354,0.13706 -1.38767,0.41116 -0.45228,0.26726 -0.87029,0.65444 -1.25403,1.16152 -0.37691,0.50026 -0.56535,0.78122 -0.56535,0.84288 l 0,6.92805 -1.59324,0 0,-10.71072 1.59324,0 0,2.16887 c 0.85658,-1.61722 1.96671,-2.42583 3.3304,-2.42584 0.8086,10e-6 1.59323,0.1816 2.35389,0.54478" />
    <text
       xml:space="preserve"
       style="font-size:31.51935387px;font-style:normal;font-variant:normal;font-weight:normal;font-stretch:normal;fill:#000000;fill-opacity:1;stroke:none;font-family:FreeSans;-inkscape-font-specification:FreeSans"
       x="43.828388"
       y="-401.26907"
       id="text2851-4-5-6-0"
       inkscape:export-filename="/home/nfroidure/Bureau/LocalServer/elitwork/insert/www/images/header.png"
       inkscape:export-xdpi="90"
       inkscape:export-ydpi="90"
       transform="matrix(-0.96592583,-0.25881905,0.25881905,-0.96592583,0,0)"><tspan
         sodipodi:role="line"
         x="43.828388"
         y="-401.26907"
         id="tspan2855-55-1-0-5">&gt;</tspan></text>
    <text
       xml:space="preserve"
       style="font-size:31.51935387px;font-style:normal;font-variant:normal;font-weight:normal;font-stretch:normal;fill:#000000;fill-opacity:1;stroke:none;font-family:FreeSans;-inkscape-font-specification:FreeSans"
       x="55.985943"
       y="401.8056"
       id="text2851-4-5-6-6-3"
       inkscape:export-filename="/home/nfroidure/Bureau/LocalServer/elitwork/insert/www/images/header.png"
       inkscape:export-xdpi="90"
       inkscape:export-ydpi="90"
       transform="matrix(0.96592583,0.25881905,-0.25881905,0.96592583,0,0)"><tspan
         sodipodi:role="line"
         x="55.985943"
         y="401.8056"
         id="tspan2855-55-1-0-3-7">&gt;</tspan></text>
  </g>
</svg>
