<?xml version="1.0" encoding="UTF-8" standalone="no"?>
<!-- Created with Inkscape (http://www.inkscape.org/) -->

<svg
   xmlns:dc="http://purl.org/dc/elements/1.1/"
   xmlns:cc="http://creativecommons.org/ns#"
   xmlns:rdf="http://www.w3.org/1999/02/22-rdf-syntax-ns#"
   xmlns:svg="http://www.w3.org/2000/svg"
   xmlns="http://www.w3.org/2000/svg"
   xmlns:xlink="http://www.w3.org/1999/xlink"
   xmlns:sodipodi="http://sodipodi.sourceforge.net/DTD/sodipodi-0.dtd"
   xmlns:inkscape="http://www.inkscape.org/namespaces/inkscape"
   width="560"
   height="100"
   id="svg4066"
   version="1.1"
   inkscape:version="0.92.3 (2405546, 2018-03-11)"
   sodipodi:docname="logo.svg"
   inkscape:export-filename="./logo.png"
   inkscape:export-xdpi="120"
   inkscape:export-ydpi="120">
  <title
     id="title5838">Logo Insert After</title>
  <defs
     id="defs4068">
    <linearGradient
       inkscape:collect="always"
       xlink:href="#linearGradient4634"
       id="linearGradient4640"
       x1="831.94257"
       y1="-54.094429"
       x2="869.94257"
       y2="-16.094429"
       gradientUnits="userSpaceOnUse" />
    <linearGradient
       id="linearGradient4634">
      <stop
         style="stop-color:#646464;stop-opacity:1;"
         offset="0"
         id="stop4636" />
      <stop
         style="stop-color:#151515;stop-opacity:1;"
         offset="1"
         id="stop4638" />
    </linearGradient>
  </defs>
  <sodipodi:namedview
     id="base"
     pagecolor="#ffffff"
     bordercolor="#666666"
     borderopacity="1.0"
     inkscape:pageopacity="0.0"
     inkscape:pageshadow="2"
     inkscape:zoom="1.28"
     inkscape:cx="84.679445"
     inkscape:cy="21.655028"
     inkscape:current-layer="layer1"
     showgrid="false"
     inkscape:grid-bbox="true"
     inkscape:document-units="px"
     inkscape:window-width="1855"
     inkscape:window-height="1056"
     inkscape:window-x="65"
     inkscape:window-y="24"
     inkscape:window-maximized="1"
     fit-margin-top="0"
     fit-margin-left="0"
     fit-margin-right="0"
     fit-margin-bottom="0">
    <inkscape:grid
       type="xygrid"
       id="grid3104"
       originx="2029.8477"
       originy="-1520.2303" />
  </sodipodi:namedview>
  <metadata
     id="metadata4071">
    <rdf:RDF>
      <cc:Work
         rdf:about="">
        <dc:format>image/svg+xml</dc:format>
        <dc:type
           rdf:resource="http://purl.org/dc/dcmitype/StillImage" />
        <dc:title>Logo Insert After</dc:title>
        <dc:creator>
          <cc:Agent>
            <dc:title>Nicolas Froidure</dc:title>
          </cc:Agent>
        </dc:creator>
        <dc:rights>
          <cc:Agent>
            <dc:title>Copyright Nicolas Froidure - All rights reserved</dc:title>
          </cc:Agent>
        </dc:rights>
      </cc:Work>
    </rdf:RDF>
  </metadata>
  <g
     id="layer1"
     inkscape:label="Layer 1"
     inkscape:groupmode="layer"
     transform="translate(2029.8477,1572.2303)">
    <rect
       style="opacity:0;fill:#fffeff;fill-opacity:1;stroke:none;stroke-width:0.43999505;stroke-opacity:1"
       id="rect5802"
       width="560"
       height="100"
       x="-2029.8477"
       y="-1572.2303"
       ry="0" />
    <g
       id="g5836">
      <rect
         style="opacity:1;fill:#3e78b2;fill-opacity:1;stroke:none;stroke-width:0.14874548;stroke-opacity:1"
         id="rect5780"
         width="80"
         height="80"
         x="-2019.3514"
         y="-1563.2789"
         ry="15.202795" />
      <path
         id="path5782"
         d="m -1729.3867,-1554.707 -22.0781,68.1269 h 10.0937 l 21.9219,-68.1269 z m -148.9805,5.205 c -5.2041,0 -9.3043,1.2874 -12.3008,3.8633 -2.9437,2.5755 -4.414,6.1495 -4.414,10.7227 0,2.3131 0.4206,4.2587 1.2617,5.8359 0.8411,1.5245 1.8908,2.8118 3.1523,3.8633 1.3143,1.051 2.7608,1.9184 4.3379,2.6016 1.5769,0.6836 3.1004,1.2889 4.5723,1.8144 1.104,0.4207 2.2087,0.8943 3.3125,1.4199 1.104,0.4731 2.1024,1.0253 2.9961,1.6563 0.8938,0.578 1.6307,1.2601 2.209,2.0488 0.5781,0.7886 0.8672,1.6828 0.8672,2.6817 0,0.7883 -0.1315,1.5766 -0.3946,2.3652 -0.2102,0.7359 -0.631,1.4199 -1.2617,2.0508 -0.631,0.578 -1.4977,1.0519 -2.6016,1.4199 -1.0515,0.3156 -2.3919,0.4727 -4.0214,0.4727 -2.8386,0 -5.2584,-0.3697 -7.2559,-1.1055 -1.945,-0.7359 -3.6254,-1.524 -5.0449,-2.3652 l -2.8399,7.8847 c 1.2091,0.736 3.0232,1.5515 5.4414,2.4453 2.418,0.8409 5.6515,1.2617 9.6993,1.2617 6.0451,0 10.5386,-1.2363 13.4824,-3.707 2.9963,-2.523 4.4941,-6.071 4.4941,-10.6445 0,-2.6809 -0.4461,-4.8885 -1.3398,-6.6231 -0.8937,-1.7872 -2.0513,-3.2597 -3.4707,-4.416 -1.3667,-1.2095 -2.8902,-2.1545 -4.5723,-2.8379 -1.6296,-0.7359 -3.2061,-1.3946 -4.7305,-1.9726 -0.9989,-0.3682 -2.0248,-0.7611 -3.0761,-1.1817 -0.999,-0.4207 -1.9187,-0.8942 -2.7598,-1.4199 -0.7886,-0.5783 -1.4452,-1.2092 -1.9707,-1.8926 -0.5258,-0.7358 -0.7891,-1.5772 -0.7891,-2.5234 0,-3.7323 2.5771,-5.5977 7.7286,-5.5977 2.1026,0 3.9424,0.2635 5.5195,0.7891 1.6295,0.5257 3.1017,1.1564 4.416,1.8926 l 2.8379,-7.4922 c -1.5245,-0.8408 -3.4175,-1.602 -5.6777,-2.2852 -2.208,-0.6838 -4.8103,-1.0254 -7.8067,-1.0254 z m 75.1465,0.5508 c -0.7885,0 -1.71,0.03 -2.7617,0.08 -1.0512,0.053 -2.1542,0.1307 -3.3106,0.2363 -1.1564,0.053 -2.3144,0.181 -3.4707,0.3926 -1.1039,0.1578 -2.1279,0.3426 -3.0742,0.5527 v 48.0997 h 9.6992 v -17.9786 h 5.0469 c 1.8398,2.9965 3.5478,5.9665 5.125,8.9102 1.6295,2.8911 3.0489,5.9145 4.2578,9.0684 h 10.1719 c -0.6307,-1.6296 -1.3936,-3.3376 -2.2871,-5.125 -0.8413,-1.8398 -1.7356,-3.6542 -2.6817,-5.4414 -0.9462,-1.8397 -1.9171,-3.5737 -2.916,-5.2032 -0.9987,-1.6822 -1.9462,-3.2075 -2.8398,-4.5742 2.6809,-1.2089 4.5992,-2.9705 5.7558,-5.2832 1.1564,-2.3131 1.7344,-4.8878 1.7344,-7.7266 0,-2.7336 -0.4462,-5.1 -1.3398,-7.0976 -0.8411,-2.0502 -2.0754,-3.7305 -3.7051,-5.0449 -1.6295,-1.3143 -3.5755,-2.2868 -5.8359,-2.918 -2.2604,-0.6306 -4.7823,-0.9473 -7.5684,-0.9473 z m -131.5254,0.5528 v 48.8086 h 8.7539 v -32.4082 c 2.9965,5.4144 5.7816,10.8295 8.3574,16.2441 2.6283,5.3621 5.0482,10.7498 7.2559,16.1641 h 7.8047 v -48.8086 h -8.752 v 30.0429 c -0.8411,-1.8927 -1.867,-4.1017 -3.0761,-6.625 -1.1564,-2.5234 -2.4441,-5.1238 -3.8633,-7.8047 -1.3668,-2.6808 -2.7859,-5.3621 -4.2578,-8.0429 -1.4718,-2.7336 -2.9421,-5.2571 -4.4141,-7.5703 z m 80.1934,0 v 48.8086 h 31.3027 v -8.043 h -21.6035 v -13.7207 h 17.2656 v -8.041 h -17.2656 v -10.961 h 19.8691 v -8.0429 z m 75.8535,0 v 8.0429 h 12.8515 v 40.7657 h 9.7774 v -40.7657 h 12.8555 v -8.0429 z m -24.5215,7.8847 c 2.5758,0 4.6514,0.6053 6.2285,1.8145 1.577,1.209 2.3652,3.1002 2.3652,5.6758 0,2.3657 -0.7369,4.2053 -2.2089,5.5195 -1.4717,1.2617 -3.8622,1.8926 -7.1739,1.8926 h -2.1289 v -14.666 c 0.5256,-0.1045 1.0507,-0.1582 1.5762,-0.1582 0.5257,-0.053 0.9738,-0.078 1.3418,-0.078 z m 84.1055,3.627 -2.7578,8.5156 12.873,8.5957 -22.1562,8.5957 2.7578,8.5156 30.2793,-12.7734 v -8.7539 z"
         style="font-style:normal;font-variant:normal;font-weight:bold;font-stretch:normal;font-size:26.96797752px;line-height:125%;font-family:'Ubuntu Mono';-inkscape-font-specification:'Ubuntu Mono';letter-spacing:0px;word-spacing:0px;fill:#050505;fill-opacity:1;stroke:none;stroke-width:2.11208701px;stroke-linecap:butt;stroke-linejoin:miter;stroke-opacity:1"
         inkscape:connector-curvature="0" />
      <path
         id="path5788"
         d="m -1975.5391,-1548.3984 v 8.0429 h 10.6446 v 32.7227 h -10.6446 v 8.043 h 30.9883 v -8.043 h -10.5664 v -32.7227 h 10.5664 v -8.0429 z m -9.8574,11.4336 -30.2773,12.6953 v 8.7519 l 30.2773,12.7735 2.6817,-8.5157 -22.0782,-8.5937 22.0782,-8.5957 z"
         style="font-style:normal;font-variant:normal;font-weight:bold;font-stretch:normal;font-size:26.96797752px;line-height:125%;font-family:'Ubuntu Mono';-inkscape-font-specification:'Ubuntu Mono';letter-spacing:0px;word-spacing:0px;fill:#fffeff;fill-opacity:1;stroke:none;stroke-width:2.11208701px;stroke-linecap:butt;stroke-linejoin:miter;stroke-opacity:1"
         inkscape:connector-curvature="0" />
      <path
         style="font-style:normal;font-variant:normal;font-weight:normal;font-stretch:normal;font-size:medium;line-height:125%;font-family:'Ubuntu Mono';-inkscape-font-specification:'Ubuntu Mono';letter-spacing:0px;word-spacing:0px;fill:#333333;fill-opacity:1;stroke:none;stroke-width:2.11208701px;stroke-linecap:butt;stroke-linejoin:miter;stroke-opacity:1"
         d="m -1604.6185,-1554.2341 c -1.893,0 -3.7064,0.2369 -5.4416,0.7102 -1.6819,0.4731 -3.1788,1.2882 -4.493,2.4447 -1.2618,1.1565 -2.2861,2.6811 -3.0752,4.5738 -0.7883,1.8396 -1.1829,4.1782 -1.1829,7.0168 v 3.3121 h -7.7284 v 5.4408 h 7.7284 v 31.1454 h 6.4651 v -31.1454 h 14.7457 v -5.4408 h -14.7457 v -3.2336 c 0,-1.7873 0.2097,-3.2586 0.6306,-4.415 0.4199,-1.2089 1.0003,-2.1557 1.7359,-2.8391 0.7357,-0.736 1.5773,-1.2344 2.5234,-1.4972 0.9988,-0.3155 2.0494,-0.4733 3.1533,-0.4733 1.7872,0 3.5478,0.2107 5.2823,0.6301 1.7344,0.4209 3.1811,0.9209 4.3376,1.4992 l 1.1822,-5.5998 c -1.6827,-0.5782 -3.4945,-1.0768 -5.4393,-1.4973 -1.8931,-0.4205 -3.7862,-0.6316 -5.6784,-0.6316 z m 31.698,6.7027 -6.4651,1.1043 v 10.2506 h -7.7269 v 5.4408 h 7.7269 v 17.0316 c 0,2.4707 0.1833,4.653 0.5516,6.5454 0.3674,1.84 1.025,3.3904 1.9718,4.6522 0.9988,1.2616 2.3644,2.207 4.0988,2.8376 1.7351,0.631 3.9693,0.9458 6.7025,0.9458 2.3657,0 4.3369,-0.2601 5.9141,-0.787 1.6294,-0.5259 2.8138,-0.9465 3.5494,-1.2616 l -0.9477,-5.5197 c -1.0512,0.5256 -2.1538,0.9463 -3.3102,1.2615 -1.1565,0.3155 -2.6813,0.4732 -4.5736,0.4732 -1.3669,0 -2.5228,-0.1312 -3.4689,-0.3943 -0.9468,-0.2632 -1.736,-0.7369 -2.3665,-1.4206 -0.5787,-0.7358 -0.9986,-1.6809 -1.2618,-2.8374 -0.263,-1.1566 -0.3944,-2.6555 -0.3944,-4.4951 v -17.0316 h 15.4559 v -5.4408 h -15.4559 z m -78.5347,10.4873 c -2.3657,0 -4.5999,0.1581 -6.7026,0.4731 -2.05,0.3152 -3.5231,0.684 -4.4166,1.1044 l 0.7883,5.3609 c 0.8936,-0.3155 2.1816,-0.6303 3.8635,-0.9458 1.6826,-0.3156 3.6538,-0.4729 5.9143,-0.4729 1.7871,0 3.2336,0.2633 4.3376,0.7887 1.1564,0.4729 2.05,1.1292 2.6805,1.9704 0.6832,0.841 1.1304,1.7876 1.3407,2.8391 0.2622,0.9988 0.3938,2.0507 0.3938,3.1548 v 1.8132 c -2.4701,-0.5784 -4.9938,-0.8674 -7.5697,-0.8674 -1.8923,0 -3.7845,0.2107 -5.677,0.6302 -1.8394,0.3677 -3.4958,0.9993 -4.9679,1.8932 -1.419,0.8936 -2.601,2.0757 -3.5479,3.5476 -0.8935,1.4195 -1.3414,3.1811 -1.3414,5.2839 0,2.3655 0.4479,4.3094 1.3414,5.8339 0.8943,1.5244 2.0764,2.7341 3.5479,3.6275 1.4721,0.8413 3.1547,1.4193 5.0469,1.7348 1.8923,0.3679 3.8379,0.5514 5.8353,0.5514 2.628,0 5.178,-0.1841 7.6481,-0.5514 2.5235,-0.368 4.5473,-0.683 6.0712,-0.9458 v -22.8669 c 0,-2.0502 -0.2367,-3.9434 -0.7101,-5.6781 -0.4727,-1.7348 -1.2866,-3.2061 -2.4431,-4.4151 -1.1565,-1.2091 -2.6813,-2.1558 -4.5736,-2.839 -1.8397,-0.6833 -4.1265,-1.0247 -6.8596,-1.0247 z m 119.222,0 c -2.1553,0 -4.258,0.3947 -6.3081,1.1833 -2.0501,0.7883 -3.8905,1.9707 -5.5196,3.5476 -1.6301,1.5772 -2.9437,3.5744 -3.9425,5.9925 -0.9987,2.4181 -1.4984,5.2564 -1.4984,8.5158 0,2.7336 0.3945,5.2829 1.1828,7.6483 0.7885,2.3131 1.972,4.3118 3.5493,5.9942 1.5768,1.6821 3.5472,3.0219 5.9128,4.0207 2.4175,0.9462 5.2042,1.4186 8.3581,1.4186 2.5761,0 4.89,-0.2367 6.94,-0.7087 2.0502,-0.473 3.4697,-0.9195 4.258,-1.3399 l -0.8672,-5.5197 c -0.8409,0.4206 -2.0771,0.8136 -3.7063,1.1813 -1.63,0.3684 -3.6012,0.5534 -5.9144,0.5534 -4.0474,0 -7.2007,-0.9727 -9.4612,-2.9177 -2.2078,-1.9977 -3.4442,-4.8898 -3.7063,-8.6745 h 26.1789 v -2.2862 c 0,-6.2554 -1.3414,-10.9077 -4.0227,-13.9568 -2.6806,-3.1014 -6.4922,-4.6522 -11.4332,-4.6522 z m 43.6834,0.079 c -5.4671,0 -10.8808,0.9208 -16.2426,2.7609 v 34.6142 h 6.465 v -30.3566 c 3.3117,-0.8936 6.571,-1.3402 9.7776,-1.3402 1.5241,0 2.9174,0.079 4.1791,0.2367 1.3144,0.1045 2.8129,0.3942 4.4955,0.8672 l 1.1828,-5.755 c -1.8397,-0.4208 -3.5222,-0.6836 -5.0463,-0.7887 -1.5248,-0.158 -3.1292,-0.2369 -4.8111,-0.2369 z m -194.2808,0.7889 c -1.7872,0 -3.2064,0.604 -4.2578,1.8131 -1.0513,1.2091 -1.5774,2.6282 -1.5774,4.2578 0,1.5772 0.5261,2.9704 1.5774,4.1793 1.0514,1.2091 2.4706,1.8131 4.2578,1.8131 1.7348,0 3.128,-0.604 4.1794,-1.8131 1.0512,-1.2089 1.5775,-2.6021 1.5775,-4.1793 0,-1.6296 -0.5263,-3.0487 -1.5775,-4.2578 -1.0514,-1.2091 -2.4446,-1.8131 -4.1794,-1.8131 z m 150.5185,4.6522 c 2.6814,0 4.8358,0.9192 6.4659,2.759 1.6291,1.7874 2.4445,4.2326 2.4445,7.3343 h -19.3975 c 0.1578,-1.2617 0.4997,-2.4974 1.0259,-3.7063 0.5259,-1.2094 1.2352,-2.2874 2.1288,-3.2335 0.8936,-0.9461 1.9442,-1.7079 3.1533,-2.2862 1.2617,-0.5782 2.6551,-0.8673 4.1791,-0.8673 z m -117.7244,14.9812 c 1.3137,0 2.5499,0.079 3.7065,0.2369 1.2091,0.1578 2.2334,0.3671 3.0743,0.63 v 10.8817 c -0.8409,0.158 -1.9193,0.2895 -3.2329,0.3946 -1.2619,0.1044 -2.707,0.1578 -4.3368,0.1578 -2.7333,0 -4.914,-0.4465 -6.5441,-1.3401 -1.5766,-0.9464 -2.3656,-2.601 -2.3656,-4.9667 0,-1.1564 0.2884,-2.1028 0.8671,-2.8391 0.578,-0.7885 1.3135,-1.4198 2.2071,-1.8932 0.8936,-0.4732 1.9202,-0.788 3.0766,-0.9458 1.1566,-0.2106 2.3387,-0.3159 3.5478,-0.3159 z m -32.7941,5.8354 c -1.7872,0 -3.2064,0.6041 -4.2578,1.8131 -1.0513,1.2089 -1.5774,2.6283 -1.5774,4.2578 0,1.577 0.5261,2.9703 1.5774,4.1794 1.0514,1.2089 2.4706,1.8145 4.2578,1.8145 1.7348,0 3.128,-0.6056 4.1794,-1.8145 1.0512,-1.2091 1.5775,-2.6024 1.5775,-4.1794 0,-1.6295 -0.5263,-3.0489 -1.5775,-4.2578 -1.0514,-1.209 -2.4446,-1.8131 -4.1794,-1.8131 z"
         id="path5800"
         inkscape:connector-curvature="0"
         sodipodi:nodetypes="scccsccccccccccscccsccccsccccccscccsccccscccscccccsccccscccscscccscccsccscccssccsscccsccccscccscscccccsccccccscscscscssccccccscccccscscccccscscssscs" />
    </g>
  </g>
</svg>
