<svg xmlns="http://www.w3.org/2000/svg" width="565.333" height="544" viewBox="0 0 530 510"><g transform="translate(530 1052.362)" fill="teal" fill-opacity=".2" stroke="teal" stroke-width="1.006"><circle r="149.497" cy="-872.362" cx="-180"/><circle cx="-350" cy="-872.362" r="149.497"/><circle r="149.497" cy="-722.362" cx="-270"/></g><text style="line-height:125%;text-align:center" x="128.161" y="679.54" font-weight="400" font-size="17.5" font-family="sans-serif" letter-spacing="0" word-spacing="0" text-anchor="middle" transform="translate(0 -542.362)"><tspan x="128.161" y="679.54">Ma mission</tspan><tspan x="128.161" y="701.415">personelle</tspan></text><text y="681.969" x="406.259" style="line-height:125%;text-align:center" font-weight="400" font-size="17.5" font-family="sans-serif" letter-spacing="0" word-spacing="0" text-anchor="middle" transform="translate(0 -542.362)"><tspan y="681.969" x="406.259">Mes ressources</tspan><tspan y="703.844" x="406.259">intérieures</tspan></text><text style="line-height:125%;text-align:center" x="264.174" y="928.493" font-weight="400" font-size="17.5" font-family="sans-serif" letter-spacing="0" word-spacing="0" text-anchor="middle" transform="translate(0 -542.362)"><tspan x="264.174" y="928.493">La relation à</tspan><tspan x="264.174" y="950.368">mon environnement</tspan></text><text style="line-height:125%;text-align:center" x="263.889" y="677.112" font-weight="400" font-size="17.5" font-family="sans-serif" letter-spacing="0" word-spacing="0" text-anchor="middle" transform="translate(0 -542.362)"><tspan x="263.889" y="677.112">Exclusion</tspan><tspan x="263.889" y="698.987">Solitude</tspan></text><text y="761.112" x="263.889" style="line-height:125%;text-align:center" font-weight="400" font-size="17.5" font-family="sans-serif" letter-spacing="0" word-spacing="0" text-anchor="middle" transform="translate(0 -542.362)"><tspan y="761.112" x="263.889">Développement</tspan><tspan y="782.987" x="263.889">personnel</tspan><tspan y="804.862" x="263.889">durable</tspan></text><text style="line-height:125%;text-align:center" x="347.889" y="833.112" font-weight="400" font-size="17.5" font-family="sans-serif" letter-spacing="0" word-spacing="0" text-anchor="middle" transform="translate(0 -542.362)"><tspan x="347.889" y="833.112">Dépression</tspan></text><text y="827.112" x="175.889" style="line-height:125%;text-align:center" font-weight="400" font-size="17.5" font-family="sans-serif" letter-spacing="0" word-spacing="0" text-anchor="middle" transform="translate(0 -542.362)"><tspan y="827.112" x="175.889">Épuisement</tspan><tspan y="848.987" x="175.889">Burn-out</tspan></text><text style="line-height:125%;-inkscape-font-specification:STIX" x="109.211" y="1041.432" font-weight="400" font-size="15" font-family="STIX" letter-spacing="0" word-spacing="0" transform="translate(0 -542.362)"><tspan x="109.211" y="1041.432">Source: Découvrir la communication non-violente - Françoise Keller</tspan></text></svg>