<svg xmlns="http://www.w3.org/2000/svg" xmlns:xlink="http://www.w3.org/1999/xlink" width="297mm" height="210mm" viewBox="0 0 1052.362 744.094"><g transform="translate(0 -308.268)"><g id="a"><path transform="matrix(0 .28742 -.32043 0 -59.833 329.988)" stroke-width=".317" d="M732.374-337.707h80.266v10h-80.266z"/><path transform="matrix(.00451 -.07725 .08613 .00405 17.05 540.131)" d="M-252.538 413.946l-48.504-24.524-48.504-24.524 45.49-29.744 45.49-29.744 3.014 54.268z"/></g><text style="line-height:0%" x="26.147" y="454.109" font-weight="400" font-family="sans-serif" letter-spacing="0" word-spacing="0"><tspan x="26.147" y="454.109" style="line-height:1.25" font-size="30">Startup</tspan></text><text style="line-height:0%;text-align:center" x="527.821" y="383.472" font-weight="400" font-family="sans-serif" letter-spacing="0" word-spacing="0" text-anchor="middle"><tspan x="527.821" y="383.472" style="line-height:1.25" font-size="40">Dependencies graph sequences</tspan></text><circle cx="46.875" cy="596.737" r="18.75"/><circle cx="103.125" cy="681.112" r="18.75"/><circle r="18.75" cy="512.362" cx="46.875"/><text y="774.074" x="26.147" style="line-height:0%" font-weight="400" font-family="sans-serif" letter-spacing="0" word-spacing="0"><tspan style="line-height:1.25" y="774.074" x="26.147" font-size="30">Shutdown</tspan></text><path d="M104.628 540.487v107.445h-3.204V540.487z"/><path d="M107.812 645.692l-2.33 3.647-2.332 3.648-2.356-3.635-2.357-3.634 4.688-.013z"/><use xlink:href="#a" transform="translate(112.5 84.375)" width="100%" height="100%"/><use height="100%" width="100%" transform="matrix(.77395 -.63977 .61916 .79972 -308.471 225.92)" id="b" xlink:href="#a" y="0" x="0"/><use xlink:href="#a" transform="translate(112.5)" width="100%" height="100%"/><use xlink:href="#b" transform="matrix(-1 0 0 1 202.899 0)" width="100%" height="100%"/><circle r="18.75" cy="681.112" cx="159.375"/><circle cx="103.125" cy="512.362" r="18.75"/><circle r="18.75" cy="512.362" cx="159.375"/><circle cx="159.375" cy="596.737" r="18.75"/><path d="M320.253 540.487v23.07h-3.204v-23.07z"/><path d="M323.437 561.317l-2.33 3.647-2.332 3.648-2.356-3.635-2.357-3.634 4.688-.013z"/><circle r="18.75" cy="596.737" cx="318.75"/><circle r="18.75" cy="681.112" cx="375" fill="#008500"/><circle cx="318.75" cy="512.362" r="18.75"/><path d="M376.503 540.487v107.445H373.3V540.487z"/><path d="M379.687 645.692l-2.33 3.647-2.332 3.648-2.356-3.635-2.357-3.634 4.688-.013z"/><use height="100%" width="100%" transform="translate(384.375 84.375)" xlink:href="#a"/><use xlink:href="#a" transform="matrix(.77395 -.63977 .61916 .79972 -36.596 225.92)" width="100%" height="100%"/><use height="100%" width="100%" transform="translate(384.375)" xlink:href="#a"/><use height="100%" width="100%" transform="matrix(-1 0 0 1 474.774 0)" xlink:href="#b"/><circle cx="431.25" cy="681.112" r="18.75" fill="#008500"/><circle r="18.75" cy="512.362" cx="375"/><circle cx="431.25" cy="512.362" r="18.75"/><circle r="18.75" cy="596.737" cx="431.25"/><path d="M320.253 855.487v23.07h-3.204v-23.07z"/><path d="M323.437 876.317l-2.33 3.647-2.332 3.648-2.356-3.635-2.357-3.634 4.688-.013z"/><circle cx="318.75" cy="911.737" r="18.75"/><circle cx="375" cy="996.112" r="18.75"/><circle r="18.75" cy="827.362" cx="318.75" fill="#920000"/><path d="M376.503 855.487v107.445H373.3V855.487z"/><path d="M379.687 960.692l-2.33 3.647-2.332 3.648-2.356-3.635-2.357-3.634 4.688-.013z"/><use xlink:href="#a" transform="translate(384.375 399.375)" width="100%" height="100%"/><use height="100%" width="100%" transform="matrix(.77395 -.63977 .61916 .79972 -36.596 540.92)" xlink:href="#a"/><use xlink:href="#a" transform="translate(384.375 315)" width="100%" height="100%"/><use xlink:href="#b" transform="matrix(-1 0 0 1 474.774 315)" width="100%" height="100%"/><circle r="18.75" cy="996.112" cx="431.25"/><circle cx="375" cy="827.362" r="18.75" fill="#920000"/><circle r="18.75" cy="827.362" cx="431.25" fill="#920000"/><circle cx="431.25" cy="911.737" r="18.75"/><path d="M48.378 855.487v23.07h-3.204v-23.07z"/><path d="M51.562 876.317l-2.33 3.647-2.332 3.648-2.356-3.635-2.357-3.634 4.688-.013z"/><circle r="18.75" cy="911.737" cx="46.875"/><circle r="18.75" cy="996.112" cx="103.125"/><circle cx="46.875" cy="827.362" r="18.75"/><path d="M104.628 855.487v107.445h-3.204V855.487z"/><path d="M107.812 960.692l-2.33 3.647-2.332 3.648-2.356-3.635-2.357-3.634 4.688-.013z"/><use height="100%" width="100%" transform="translate(112.5 399.375)" xlink:href="#a"/><use xlink:href="#a" transform="matrix(.77395 -.63977 .61916 .79972 -308.471 540.92)" width="100%" height="100%"/><use height="100%" width="100%" transform="translate(112.5 315)" xlink:href="#a"/><use height="100%" width="100%" transform="matrix(-1 0 0 1 202.899 315)" xlink:href="#b"/><circle cx="159.375" cy="996.112" r="18.75"/><circle r="18.75" cy="827.362" cx="103.125"/><circle cx="159.375" cy="827.362" r="18.75"/><circle r="18.75" cy="911.737" cx="159.375"/><path d="M624.003 540.487v23.07H620.8v-23.07z"/><path d="M627.187 561.317l-2.33 3.647-2.332 3.648-2.356-3.635-2.357-3.634 4.688-.013z"/><circle r="18.75" cy="596.737" cx="622.5" fill="#008500"/><circle r="18.75" cy="681.112" cx="678.75" fill="#008500"/><circle cx="622.5" cy="512.362" r="18.75"/><path d="M680.253 540.487v107.445h-3.204V540.487z"/><path d="M683.437 645.692l-2.33 3.647-2.332 3.648-2.356-3.635-2.357-3.634 4.688-.013z"/><use height="100%" width="100%" transform="translate(688.125 84.375)" xlink:href="#a"/><use xlink:href="#a" transform="matrix(.77395 -.63977 .61916 .79972 267.154 225.92)" width="100%" height="100%"/><use height="100%" width="100%" transform="translate(688.125)" xlink:href="#a"/><use height="100%" width="100%" transform="matrix(-1 0 0 1 778.524 0)" xlink:href="#b"/><circle cx="735" cy="681.112" r="18.75" fill="#008500"/><circle r="18.75" cy="512.362" cx="678.75" fill="#008500"/><circle cx="735" cy="512.362" r="18.75"/><circle r="18.75" cy="596.737" cx="735" fill="#008500"/><path d="M895.878 540.487v23.07h-3.204v-23.07z"/><path d="M899.062 561.317l-2.33 3.647-2.332 3.648-2.356-3.635-2.357-3.634 4.688-.013z"/><circle cx="894.375" cy="596.737" r="18.75" fill="#008500"/><circle cx="950.625" cy="681.112" r="18.75" fill="#008500"/><circle r="18.75" cy="512.362" cx="894.375" fill="#008500"/><path d="M952.128 540.487v107.445h-3.204V540.487z"/><path d="M955.312 645.692l-2.33 3.647-2.332 3.648-2.356-3.635-2.357-3.634 4.688-.013z"/><use xlink:href="#a" transform="translate(960 84.375)" width="100%" height="100%"/><use height="100%" width="100%" transform="matrix(.77395 -.63977 .61916 .79972 539.029 225.92)" xlink:href="#a"/><use xlink:href="#a" transform="translate(960)" width="100%" height="100%"/><use xlink:href="#b" transform="matrix(-1 0 0 1 1050.399 0)" width="100%" height="100%"/><circle r="18.75" cy="681.112" cx="1006.875" fill="#008500"/><circle cx="950.625" cy="512.362" r="18.75" fill="#008500"/><circle r="18.75" cy="512.362" cx="1006.875" fill="#008500"/><circle cx="1006.875" cy="596.737" r="18.75" fill="#008500"/><path d="M895.878 855.487v23.07h-3.204v-23.07z"/><path d="M899.062 876.317l-2.33 3.647-2.332 3.648-2.356-3.635-2.357-3.634 4.688-.013z"/><circle r="18.75" cy="911.737" cx="894.375" fill="#920000"/><circle r="18.75" cy="996.112" cx="950.625" fill="#920000"/><circle cx="894.375" cy="827.362" r="18.75" fill="#920000"/><path d="M952.128 855.487v107.445h-3.204V855.487z"/><path d="M955.312 960.692l-2.33 3.647-2.332 3.648-2.356-3.635-2.357-3.634 4.688-.013z"/><use height="100%" width="100%" transform="translate(960 399.375)" xlink:href="#a"/><use xlink:href="#a" transform="matrix(.77395 -.63977 .61916 .79972 539.029 540.92)" width="100%" height="100%"/><use height="100%" width="100%" transform="translate(960 315)" xlink:href="#a"/><use height="100%" width="100%" transform="matrix(-1 0 0 1 1050.399 315)" xlink:href="#b"/><circle cx="1006.875" cy="996.112" r="18.75" fill="#920000"/><circle r="18.75" cy="827.362" cx="950.625" fill="#920000"/><circle cx="1006.875" cy="827.362" r="18.75" fill="#920000"/><circle r="18.75" cy="911.737" cx="1006.875" fill="#920000"/><path d="M624.003 855.487v23.07H620.8v-23.07z"/><path d="M627.187 876.317l-2.33 3.647-2.332 3.648-2.356-3.635-2.357-3.634 4.688-.013z"/><circle cx="622.5" cy="911.737" r="18.75" fill="#920000"/><circle cx="678.75" cy="996.112" r="18.75"/><circle r="18.75" cy="827.362" cx="622.5" fill="#920000"/><path d="M680.253 855.487v107.445h-3.204V855.487z"/><path d="M683.437 960.692l-2.33 3.647-2.332 3.648-2.356-3.635-2.357-3.634 4.688-.013z"/><use xlink:href="#a" transform="translate(688.125 399.375)" width="100%" height="100%"/><use height="100%" width="100%" transform="matrix(.77395 -.63977 .61916 .79972 267.154 540.92)" xlink:href="#a"/><use xlink:href="#a" transform="translate(688.125 315)" width="100%" height="100%"/><use xlink:href="#b" transform="matrix(-1 0 0 1 778.524 315)" width="100%" height="100%"/><circle r="18.75" cy="996.112" cx="735"/><circle cx="678.75" cy="827.362" r="18.75" fill="#920000"/><circle r="18.75" cy="827.362" cx="735" fill="#920000"/><circle cx="735" cy="911.737" r="18.75" fill="#920000"/></g></svg>