<svg xmlns="http://www.w3.org/2000/svg" width="297mm" height="210mm" viewBox="0 0 1052.362 744.094"><path fill="#ffe680" d="M245.83 670.094v-600H98.625v600z"/><path fill="#aade87" d="M245.83 670.094v-600h379.337v600z"/><path fill="#f95" d="M781.842 670.094v-600H625.167v600z"/><path d="M98 660.094h800v10H98z"/><path d="M890.204 648.282l12.691 7.274 12.692 7.275-12.646 7.354-12.646 7.354-.046-14.629z"/><text style="line-height:0%;text-align:center" x="-684.396" y="184.656" transform="matrix(0 -1 1 0 0 -308.268)" font-weight="400" font-family="sans-serif" letter-spacing="0" word-spacing="0" text-anchor="middle"><tspan x="-684.396" y="184.656" style="line-height:1.25;text-align:center" font-size="30">Bootstrapping</tspan></text><text style="line-height:0%" x="830.345" y="1030.139" font-weight="400" font-family="sans-serif" letter-spacing="0" word-spacing="0" transform="translate(0 -308.268)"><tspan x="830.345" y="1030.139" style="line-height:1.25" font-size="30">Time</tspan></text><text transform="matrix(0 -1 1 0 0 -308.268)" y="438.584" x="-685.758" style="line-height:0%;text-align:center" font-weight="400" font-family="sans-serif" letter-spacing="0" word-spacing="0" text-anchor="middle"><tspan style="line-height:1.25;text-align:center" y="438.584" x="-680.983" font-size="30">Processus </tspan><tspan style="line-height:1.25;text-align:center" y="476.084" x="-685.758" font-size="30">lifetime</tspan></text><text style="line-height:0%;text-align:center" x="-683.986" y="709.656" transform="matrix(0 -1 1 0 0 -308.268)" font-weight="400" font-family="sans-serif" letter-spacing="0" word-spacing="0" text-anchor="middle"><tspan x="-683.986" y="709.656" style="line-height:1.25;text-align:center" font-size="30">Shutdown</tspan></text></svg>