<svg xmlns="http://www.w3.org/2000/svg" width="297mm" height="210mm" viewBox="0 0 1052.362 744.094"><path d="M98 660.094h800v10H98z"/><path d="M98 670.094v-600h10v600z"/><path d="M87.272 70.843l7.854-13.702 7.854-13.701 7.94 13.652 7.939 13.653-15.794.05zm802.932 577.439l12.691 7.274 12.692 7.275-12.646 7.354-12.646 7.354-.046-14.629z"/><text style="line-height:125%" x="-818.21" y="60.596" transform="matrix(0 -1 1 0 0 -308.268)" font-weight="400" font-size="30" font-family="sans-serif" letter-spacing="0" word-spacing="0"><tspan x="-818.21" y="60.596">Quantité de travail automatisé</tspan></text><text style="line-height:125%" x="830.345" y="1030.139" font-weight="400" font-size="40" font-family="sans-serif" letter-spacing="0" word-spacing="0" transform="translate(0 -308.268)"><tspan x="830.345" y="1030.139" font-size="30">Temps</tspan></text><path d="M113.137 653.18C900.805 658.065 923.06 191.983 919.24 65.273" fill="none" stroke="#000" stroke-width="3"/><text style="line-height:125%;text-align:center" x="564.029" y="448.291" font-weight="400" font-size="40" font-family="sans-serif" letter-spacing="0" word-spacing="0" text-anchor="middle" transform="translate(0 -308.268)"><tspan x="564.029" y="448.291">Évolution idéale de</tspan><tspan x="564.029" y="498.291">l&apos;impact</tspan><tspan x="564.029" y="548.291">d&apos;un développeur</tspan></text></svg>