<svg xmlns="http://www.w3.org/2000/svg" width="297mm" height="210mm" viewBox="0 0 1052.362 744.094"><path d="M98 660.094h800v10H98z"/><path d="M98 670.094v-600h10v600z"/><path d="M87.272 70.843l7.854-13.702 7.854-13.701 7.94 13.652 7.939 13.653-15.794.05zm802.932 577.439l12.691 7.274 12.692 7.275-12.646 7.354-12.646 7.354-.046-14.629z"/><text style="line-height:125%" x="-608.21" y="60.596" transform="matrix(0 -1 1 0 0 -308.268)" font-weight="400" font-size="30" font-family="sans-serif" letter-spacing="0" word-spacing="0"><tspan x="-608.21" y="60.596">Charge cognitive</tspan></text><text style="line-height:125%" x="656.345" y="1030.139" font-weight="400" font-size="40" font-family="sans-serif" letter-spacing="0" word-spacing="0" transform="translate(0 -308.268)"><tspan x="656.345" y="1030.139" font-size="30">Quantité de code</tspan></text><path d="M113.137 653.18c500.785 2.864 550.837-455.137 551.056-583.867" fill="none" stroke="#920000" stroke-width="3"/><text style="line-height:125%;text-align:center" x="380.182" y="407.885" font-weight="400" font-size="40" font-family="sans-serif" letter-spacing="0" word-spacing="0" text-anchor="middle" transform="translate(0 -308.268)"><tspan x="380.182" y="407.885">Évolution de la</tspan><tspan x="380.182" y="457.885">charge cognitive</tspan></text><path d="M113.25 653.322c679.115 4.886 712.318-457.38 713.828-584.152" fill="none" stroke="#008500" stroke-width="2.442"/><text style="line-height:125%;text-align:center" x="414.865" y="662.443" font-weight="400" font-size="40" font-family="sans-serif" letter-spacing="0" word-spacing="0" text-anchor="middle" fill="#920000" transform="translate(0 -308.268)"><tspan x="414.865" y="662.443">Code moins</tspan><tspan x="414.865" y="712.443">bien écrit</tspan></text><text style="line-height:125%;text-align:center" x="861.673" y="751.337" font-weight="400" font-size="40" font-family="sans-serif" letter-spacing="0" word-spacing="0" text-anchor="middle" fill="#008500" transform="translate(0 -308.268)"><tspan x="861.673" y="751.337">Code bien</tspan><tspan x="861.673" y="801.337">écrit</tspan></text></svg>