<svg xmlns="http://www.w3.org/2000/svg" width="560" height="100"><g transform="translate(2029.848 1572.23)"><rect width="80" height="80" x="-2019.351" y="-1563.279" ry="15.203" fill="#3e78b2"/><path d="M-1729.387-1554.707l-22.078 68.127h10.094l21.922-68.127zm-148.98 5.205c-5.204 0-9.305 1.287-12.301 3.863-2.944 2.576-4.414 6.15-4.414 10.723 0 2.313.42 4.259 1.262 5.836.84 1.524 1.89 2.812 3.152 3.863a19.012 19.012 0 004.338 2.602c1.577.683 3.1 1.289 4.572 1.814 1.104.42 2.209.894 3.313 1.42a16.318 16.318 0 012.996 1.656c.894.578 1.63 1.26 2.209 2.05.578.788.867 1.682.867 2.68 0 .79-.132 1.578-.395 2.366-.21.736-.63 1.42-1.261 2.05-.631.579-1.498 1.053-2.602 1.42-1.051.316-2.392.474-4.021.474-2.839 0-5.259-.37-7.256-1.106-1.945-.736-3.626-1.524-5.045-2.365l-2.84 7.885c1.21.736 3.023 1.551 5.441 2.445 2.418.84 5.652 1.262 9.7 1.262 6.045 0 10.538-1.237 13.482-3.707 2.996-2.523 4.494-6.071 4.494-10.645 0-2.68-.446-4.888-1.34-6.623-.893-1.787-2.05-3.26-3.47-4.416a15.854 15.854 0 00-4.573-2.838 83.172 83.172 0 00-4.73-1.973 117.32 117.32 0 01-3.076-1.181 19.41 19.41 0 01-2.76-1.42 9.682 9.682 0 01-1.97-1.893c-.527-.736-.79-1.577-.79-2.523 0-3.732 2.577-5.598 7.729-5.598 2.102 0 3.942.264 5.52.79 1.629.525 3.101 1.156 4.415 1.892l2.838-7.492c-1.524-.841-3.417-1.602-5.678-2.286-2.208-.683-4.81-1.025-7.806-1.025zm75.146.55c-.788 0-1.71.03-2.761.08a81.6 81.6 0 00-3.311.237 25.832 25.832 0 00-3.47.393 40.942 40.942 0 00-3.075.552v48.1h9.7v-17.979h5.046a174.962 174.962 0 015.125 8.91 68.032 68.032 0 014.258 9.07h10.172a59.727 59.727 0 00-2.287-5.126 104.637 104.637 0 00-2.682-5.441 79.727 79.727 0 00-2.916-5.204 125.055 125.055 0 00-2.84-4.574c2.681-1.209 4.6-2.97 5.756-5.283 1.156-2.313 1.734-4.888 1.734-7.727 0-2.733-.446-5.1-1.34-7.097-.84-2.05-2.075-3.73-3.704-5.045-1.63-1.314-3.576-2.287-5.836-2.918-2.26-.63-4.783-.947-7.569-.947zm-131.525.554v48.808h8.754v-32.408a297.336 297.336 0 018.357 16.244 258.387 258.387 0 017.256 16.164h7.805v-48.808h-8.752v30.042a259.298 259.298 0 00-3.076-6.625 152.56 152.56 0 00-3.864-7.804 297.209 297.209 0 00-4.257-8.043 120.707 120.707 0 00-4.415-7.57zm80.193 0v48.808h31.303v-8.043h-21.604v-13.72h17.266v-8.042h-17.266v-10.96h19.87v-8.043zm75.854 0v8.042h12.851v40.766h9.778v-40.766h12.855v-8.042zm-24.522 7.884c2.576 0 4.652.606 6.229 1.815s2.365 3.1 2.365 5.676c0 2.365-.737 4.205-2.209 5.52-1.472 1.26-3.862 1.892-7.174 1.892h-2.129v-14.666a8.065 8.065 0 011.576-.159c.526-.053.974-.078 1.342-.078zm84.106 3.627l-2.758 8.516 12.873 8.596-22.156 8.595 2.758 8.516 30.279-12.774v-8.753z" style="line-height:125%;-inkscape-font-specification:'Ubuntu Mono'" font-weight="700" font-size="26.968" font-family="Ubuntu Mono" letter-spacing="0" word-spacing="0" fill="#050505"/><path d="M-1975.54-1548.398v8.042h10.646v32.723h-10.645v8.043h30.988v-8.043h-10.566v-32.723h10.566v-8.042zm-9.856 11.433l-30.278 12.695v8.752l30.277 12.774 2.682-8.516-22.078-8.593 22.078-8.596z" style="line-height:125%;-inkscape-font-specification:'Ubuntu Mono'" font-weight="700" font-size="26.968" font-family="Ubuntu Mono" letter-spacing="0" word-spacing="0" fill="#fffeff"/><path style="line-height:125%;-inkscape-font-specification:'Ubuntu Mono'" d="M-1604.619-1554.234c-1.893 0-3.706.237-5.441.71a11.384 11.384 0 00-4.493 2.445c-1.262 1.156-2.286 2.68-3.075 4.574-.789 1.84-1.183 4.178-1.183 7.016v3.313h-7.729v5.44h7.729v31.146h6.465v-31.146h14.746v-5.44h-14.746v-3.234c0-1.787.21-3.259.63-4.415.42-1.209 1-2.156 1.736-2.84.736-.735 1.578-1.234 2.524-1.496.999-.316 2.05-.474 3.153-.474 1.787 0 3.548.211 5.282.63 1.735.421 3.181.921 4.338 1.5l1.182-5.6a47.878 47.878 0 00-5.44-1.497 26.12 26.12 0 00-5.678-.632zm31.698 6.703l-6.465 1.104v10.25h-7.726v5.441h7.726v17.032c0 2.47.184 4.653.552 6.545.367 1.84 1.025 3.39 1.972 4.653.999 1.261 2.364 2.207 4.099 2.837 1.735.631 3.969.946 6.702.946 2.366 0 4.337-.26 5.914-.787 1.63-.526 2.814-.947 3.55-1.262l-.948-5.52a17.914 17.914 0 01-3.31 1.262c-1.157.316-2.682.473-4.574.473-1.367 0-2.523-.13-3.469-.394-.947-.263-1.736-.737-2.366-1.42-.579-.736-.999-1.681-1.262-2.838s-.394-2.655-.394-4.495v-17.032h15.455v-5.44h-15.455zm-78.534 10.487c-2.366 0-4.6.158-6.703.473-2.05.315-3.523.684-4.416 1.104l.788 5.361c.894-.315 2.182-.63 3.863-.946 1.683-.315 3.654-.472 5.915-.472 1.787 0 3.233.263 4.337.788 1.157.473 2.05 1.13 2.68 1.97a6.447 6.447 0 011.341 2.84c.263.999.394 2.05.394 3.155v1.813a33.093 33.093 0 00-7.57-.868c-1.892 0-3.784.211-5.676.63-1.84.368-3.496 1-4.968 1.894-1.42.893-2.601 2.075-3.548 3.547-.894 1.42-1.342 3.182-1.342 5.284 0 2.366.448 4.31 1.342 5.834.894 1.525 2.076 2.734 3.548 3.628 1.472.841 3.154 1.419 5.047 1.735 1.892.367 3.837.55 5.835.55 2.628 0 5.178-.183 7.648-.55a248.32 248.32 0 006.071-.946v-22.867c0-2.05-.237-3.944-.71-5.678-.473-1.735-1.287-3.206-2.443-4.415-1.157-1.21-2.681-2.156-4.574-2.84-1.84-.683-4.126-1.024-6.86-1.024zm119.222 0c-2.155 0-4.258.395-6.308 1.183-2.05.789-3.89 1.97-5.52 3.548-1.63 1.577-2.944 3.574-3.942 5.992-1 2.418-1.499 5.257-1.499 8.516 0 2.734.395 5.283 1.183 7.648.788 2.314 1.972 4.312 3.55 5.995 1.576 1.682 3.546 3.022 5.912 4.02 2.418.947 5.204 1.419 8.358 1.419 2.576 0 4.89-.237 6.94-.709 2.05-.473 3.47-.92 4.258-1.34l-.867-5.52c-.84.421-2.077.814-3.706 1.182-1.63.368-3.601.553-5.915.553-4.047 0-7.2-.972-9.46-2.917-2.209-1.998-3.445-4.89-3.707-8.675h26.179v-2.286c0-6.255-1.342-10.908-4.023-13.957-2.68-3.101-6.492-4.652-11.433-4.652zm43.683.079c-5.467 0-10.88.92-16.242 2.76v34.615h6.465v-30.357c3.311-.893 6.57-1.34 9.777-1.34 1.524 0 2.918.08 4.18.237 1.314.104 2.812.394 4.495.867l1.183-5.755c-1.84-.42-3.523-.684-5.047-.789a46.729 46.729 0 00-4.81-.237zm-194.28.789c-1.788 0-3.207.604-4.258 1.813-1.052 1.209-1.578 2.628-1.578 4.258 0 1.577.526 2.97 1.578 4.179 1.051 1.21 2.47 1.813 4.257 1.813 1.735 0 3.128-.604 4.18-1.813 1.051-1.209 1.577-2.602 1.577-4.18 0-1.629-.526-3.048-1.577-4.257-1.052-1.21-2.445-1.813-4.18-1.813zm150.518 4.652c2.681 0 4.836.92 6.466 2.759 1.629 1.787 2.444 4.233 2.444 7.334h-19.397c.158-1.261.5-2.497 1.026-3.706a11.14 11.14 0 012.128-3.233 10.56 10.56 0 013.154-2.287c1.261-.578 2.655-.867 4.179-.867zm-117.725 14.981c1.314 0 2.55.08 3.707.237 1.21.158 2.233.367 3.074.63v10.882c-.84.158-1.919.29-3.233.394a53.143 53.143 0 01-4.336.158c-2.734 0-4.914-.446-6.545-1.34-1.576-.946-2.365-2.6-2.365-4.967 0-1.156.288-2.102.867-2.839a6.422 6.422 0 012.207-1.893c.894-.473 1.92-.788 3.077-.946a19.761 19.761 0 013.547-.316zm-32.794 5.836c-1.787 0-3.206.604-4.257 1.813-1.052 1.209-1.578 2.628-1.578 4.258 0 1.577.526 2.97 1.578 4.179 1.051 1.209 2.47 1.814 4.257 1.814 1.735 0 3.128-.605 4.18-1.814 1.051-1.21 1.577-2.602 1.577-4.18 0-1.629-.526-3.048-1.577-4.257-1.052-1.21-2.445-1.813-4.18-1.813z" font-weight="400" font-family="Ubuntu Mono" letter-spacing="0" word-spacing="0" fill="#333"/></g></svg>