<svg xmlns="http://www.w3.org/2000/svg" width="410" height="810"><path fill="#fff" stroke="#000" stroke-width="1.078" d="M230.539 70.387h258.922v151.436H230.539z" transform="matrix(1 0 0 .98351 -154.73 -58.7)"/><text y="158.972" x="256.239" style="line-height:125%;-inkscape-font-specification:Webdings" font-size="36" font-weight="400" letter-spacing="0" word-spacing="0" font-family="Webdings" transform="matrix(1 0 0 .98351 -154.73 -58.7)"><tspan y="158.972" x="256.239">Ressource</tspan></text><path d="M230.539 290.387H620v151.436H230.539z" fill="#fff" stroke="#000" stroke-width="1.078" transform="matrix(.99864 0 0 .98346 -219.687 -5.046)"/><g font-weight="400" letter-spacing="0" word-spacing="0" font-family="Webdings"><text style="line-height:125%;-inkscape-font-specification:Webdings" x="262.355" y="378.972" font-size="36" transform="matrix(.99864 0 0 .98346 -219.687 -22.748)"><tspan x="262.355" y="378.972">Authentification</tspan></text><text style="line-height:125%;-inkscape-font-specification:Webdings" x="323.047" y="415.832" font-size="22" transform="matrix(.99864 0 0 .98346 -219.687 -22.748)"><tspan x="323.047" y="415.832">Profil utilisateur</tspan></text></g><path d="M329.45 675a124.45 124.45 0 11-248.9 0 124.45 124.45 0 11248.9 0z" fill="#fff" stroke="#000" stroke-width="1.102"/><g font-weight="400" letter-spacing="0" word-spacing="0" font-family="Webdings"><text style="line-height:125%;-inkscape-font-specification:Webdings" x="297.24" y="757.215" font-size="36" transform="translate(-177.828 -113.354)"><tspan x="297.24" y="757.215">Requête</tspan></text><text y="792.975" x="319.422" style="line-height:125%;-inkscape-font-specification:Webdings" font-size="22" transform="translate(-177.828 -113.354)"><tspan y="792.975" x="319.422">- méthode</tspan><tspan y="820.475" x="319.422">- URL</tspan><tspan y="847.975" x="319.422">- entêtes</tspan></text></g><path d="M205.363 448l-10.25 17.625-10.219 17.625 14.313.031V530h12.125v-46.688l14.312.032-10.125-17.688L205.363 448zm0-270l-10.25 17.625-10.219 17.625 14.313.031V260h12.125v-46.688l14.312.032-10.125-17.688L205.363 178z"/></svg>