<svg xmlns="http://www.w3.org/2000/svg" width="297mm" height="202mm" viewBox="0 0 1052.362 715.748"><path d="M110.465 365.057h800v10h-800z"/><path d="M486.471 658.128V77.02h10v581.108z"/><path d="M475.743 77.768l7.854-13.702 7.854-13.702 7.94 13.653 7.938 13.652-15.793.05zm426.925 275.476l12.692 7.275 12.692 7.275-12.647 7.353-12.646 7.354-.045-14.628z"/><text style="line-height:125%" x="420.69" y="378.577" font-weight="400" font-size="30" font-family="sans-serif" letter-spacing="0" word-spacing="0" transform="translate(0 -336.614)"><tspan x="420.69" y="378.577">Important</tspan></text><text style="line-height:125%" x="937.551" y="713.642" font-weight="400" font-size="40" font-family="sans-serif" letter-spacing="0" word-spacing="0" transform="translate(0 -336.614)"><tspan x="937.551" y="713.642" font-size="30">Urgent</tspan></text><text style="line-height:125%" x="156.286" y="504.503" font-weight="400" font-size="25" font-family="sans-serif" letter-spacing="0" word-spacing="0" transform="translate(0 -336.614)"><tspan x="156.286" y="504.503">Veille technologique</tspan></text><text y="454.698" x="674.948" style="line-height:125%" font-weight="400" font-size="25" font-family="sans-serif" letter-spacing="0" word-spacing="0" transform="translate(0 -336.614)"><tspan y="454.698" x="674.948">Bugs bloquants</tspan></text><text style="line-height:125%" x="489.51" y="1034.036" font-weight="400" font-size="25" font-family="sans-serif" letter-spacing="0" word-spacing="0" transform="translate(0 -336.614)"><tspan x="489.51" y="1034.036">Source: Les 7 Habitudes des gens efficaces</tspan></text><text style="line-height:125%" x="611.404" y="870.315" font-weight="400" font-size="25" font-family="sans-serif" letter-spacing="0" word-spacing="0" transform="translate(0 -336.614)"><tspan x="611.404" y="870.315">Répondre au téléphone</tspan></text><text y="810.205" x="106.48" style="line-height:125%" font-weight="400" font-size="25" font-family="sans-serif" letter-spacing="0" word-spacing="0" transform="translate(0 -336.614)"><tspan y="810.205" x="106.48">Lire le dernier Commit Strip</tspan></text><text y="556.026" x="334.898" style="line-height:125%" font-weight="400" font-size="25" font-family="sans-serif" letter-spacing="0" word-spacing="0" transform="translate(0 -336.614)"><tspan y="556.026" x="334.898">Networking</tspan></text><text style="line-height:125%" x="121.416" y="559.461" font-weight="400" font-size="25" font-family="sans-serif" letter-spacing="0" word-spacing="0" transform="translate(0 -336.614)"><tspan x="121.416" y="559.461">Documentation</tspan></text><text y="449.546" x="166.069" style="line-height:125%" font-weight="400" font-size="25" font-family="sans-serif" letter-spacing="0" word-spacing="0" transform="translate(0 -336.614)"><tspan y="449.546" x="166.069">Tests</tspan></text><text style="line-height:125%" x="272.55" y="449.546" font-weight="400" font-size="25" font-family="sans-serif" letter-spacing="0" word-spacing="0" transform="translate(0 -336.614)"><tspan x="272.55" y="449.546">Automation</tspan></text><text y="396.306" x="210.722" style="line-height:125%" font-weight="400" font-size="25" font-family="sans-serif" letter-spacing="0" word-spacing="0" transform="translate(0 -336.614)"><tspan y="396.306" x="210.722">Formation</tspan></text><text style="line-height:125%;text-align:center" x="271.62" y="875.467" font-weight="400" font-size="25" font-family="sans-serif" letter-spacing="0" word-spacing="0" text-anchor="middle" transform="translate(0 -336.614)"><tspan x="271.62" y="875.467">Mettre un meme trololol</tspan><tspan x="271.62" y="906.717">dans mon commit</tspan></text><text style="line-height:125%" x="772.842" y="796.466" font-weight="400" font-size="25" font-family="sans-serif" letter-spacing="0" word-spacing="0" transform="translate(0 -336.614)"><tspan x="772.842" y="796.466">Demandes client</tspan></text><text y="940.729" x="674.948" style="line-height:125%" font-weight="400" font-size="25" font-family="sans-serif" letter-spacing="0" word-spacing="0" transform="translate(0 -336.614)"><tspan y="940.729" x="674.948">Mentions Slack</tspan></text><text y="798.183" x="575.338" style="line-height:125%" font-weight="400" font-size="25" font-family="sans-serif" letter-spacing="0" word-spacing="0" transform="translate(0 -336.614)"><tspan y="798.183" x="575.338">Bugs rares</tspan></text><text y="605.831" x="126.568" style="line-height:125%" font-weight="400" font-size="25" font-family="sans-serif" letter-spacing="0" word-spacing="0" transform="translate(0 -336.614)"><tspan y="605.831" x="126.568">Transmission</tspan></text><text style="line-height:125%" x="112.829" y="655.637" font-weight="400" font-size="25" font-family="sans-serif" letter-spacing="0" word-spacing="0" transform="translate(0 -336.614)"><tspan x="112.829" y="655.637">Planification</tspan></text><text style="line-height:125%" x="315.485" y="602.397" font-weight="400" font-size="25" font-family="sans-serif" letter-spacing="0" word-spacing="0" transform="translate(0 -336.614)"><tspan x="315.485" y="602.397">Relationnel</tspan></text><text style="line-height:125%" x="681.818" y="525.113" font-weight="400" font-size="25" font-family="sans-serif" letter-spacing="0" word-spacing="0" transform="translate(0 -336.614)"><tspan x="681.818" y="525.113">Total blackout</tspan></text><text style="line-height:125%" x="668.079" y="597.244" font-weight="400" font-size="25" font-family="sans-serif" letter-spacing="0" word-spacing="0" transform="translate(0 -336.614)"><tspan x="668.079" y="597.244">Conflits humains</tspan></text><text y="653.919" x="303.463" style="line-height:125%" font-weight="400" font-size="25" font-family="sans-serif" letter-spacing="0" word-spacing="0" transform="translate(0 -336.614)"><tspan y="653.919" x="303.463">Analyse</tspan></text></svg>