<?xml version="1.0" encoding="UTF-8" standalone="no"?>
<!-- Created with Inkscape (http://www.inkscape.org/) -->

<svg
   xmlns:dc="http://purl.org/dc/elements/1.1/"
   xmlns:cc="http://creativecommons.org/ns#"
   xmlns:rdf="http://www.w3.org/1999/02/22-rdf-syntax-ns#"
   xmlns:svg="http://www.w3.org/2000/svg"
   xmlns="http://www.w3.org/2000/svg"
   xmlns:sodipodi="http://sodipodi.sourceforge.net/DTD/sodipodi-0.dtd"
   xmlns:inkscape="http://www.inkscape.org/namespaces/inkscape"
   width="150"
   height="150"
   id="svg3296"
   version="1.1"
   inkscape:version="0.48.3.1 r9886"
   sodipodi:docname="u0052-R.svg">
  <defs
     id="defs3298" />
  <sodipodi:namedview
     id="base"
     pagecolor="#ffffff"
     bordercolor="#666666"
     borderopacity="1.0"
     inkscape:pageopacity="0.0"
     inkscape:pageshadow="2"
     inkscape:zoom="0.7"
     inkscape:cx="91.156323"
     inkscape:cy="136.66042"
     inkscape:document-units="px"
     inkscape:current-layer="svg3296"
     showgrid="false"
     inkscape:window-width="1012"
     inkscape:window-height="617"
     inkscape:window-x="3"
     inkscape:window-y="129"
     inkscape:window-maximized="0"
     fit-margin-top="0"
     fit-margin-left="0"
     fit-margin-right="0"
     fit-margin-bottom="0" />
  <metadata
     id="metadata3301">
    <rdf:RDF>
      <cc:Work
         rdf:about="">
        <dc:format>image/svg+xml</dc:format>
        <dc:type
           rdf:resource="http://purl.org/dc/dcmitype/StillImage" />
        <dc:title />
      </cc:Work>
    </rdf:RDF>
  </metadata>
  <path
     inkscape:connector-curvature="0"
     id="path3155-0"
     style="font-size:33.44191742px;font-style:normal;font-variant:normal;font-weight:normal;font-stretch:normal;line-height:125%;letter-spacing:0px;word-spacing:0px;fill:#000000;fill-opacity:1;stroke:none;font-family:Andale Mono;-inkscape-font-specification:Andale Mono"
     d="m 147.36687,152.85714 -28.0273,0 -56.60158,-63.600316 -24.88283,0 0,63.600316 -22.42184,0 0,-139.999996 54.55079,0 c 18.32019,1.4e-4 32.76679,3.24128 43.3398,9.72356 10.66394,6.41641 15.99598,15.37935 15.99612,26.88875 -1.4e-4,8.53307 -3.87387,16.13997 -11.62112,22.8207 -7.74746,6.61479 -18.41154,11.11278 -31.99217,13.49404 l 61.66013,67.072946 M 37.85516,75.068384 l 28.30079,0 c 11.8489,0 21.46473,-2.31511 28.8477,-6.94547 7.38269,-4.6963 11.07407,-10.58344 11.07421,-17.66121 -1.4e-4,-15.61056 -13.12514,-23.41598 -39.375,-23.41612 l -28.8477,0 0,48.0228" />
</svg>
