<?xml version="1.0" encoding="UTF-8" standalone="no"?>
<svg
   xmlns:svg="http://www.w3.org/2000/svg"
   xmlns="http://www.w3.org/2000/svg"
   version="1.1"
   width="150"
   height="150">
  <path
     d="m 147.36687,152.85714 -28.0273,0 -56.60158,-63.600316 -24.88283,0 0,63.600316 -22.42184,0 0,-139.999996 54.55079,0 c 18.32019,1.4e-4 32.76679,3.24128 43.3398,9.72356 10.66394,6.41641 15.99598,15.37935 15.99612,26.88875 -1.4e-4,8.53307 -3.87387,16.13997 -11.62112,22.8207 -7.74746,6.61479 -18.41154,11.11278 -31.99217,13.49404 l 61.66013,67.072946 M 37.85516,75.068384 l 28.30079,0 c 11.8489,0 21.46473,-2.31511 28.8477,-6.94547 7.38269,-4.6963 11.07407,-10.58344 11.07421,-17.66121 -1.4e-4,-15.61056 -13.12514,-23.41598 -39.375,-23.41612 l -28.8477,0 0,48.0228" />
</svg>
